<svg width="335" height="288" viewBox="0 0 335 288" fill="none" xmlns="http://www.w3.org/2000/svg">
<g id="undraw_developer_activity_re_39tg 1" clip-path="url(#clip0_226_1940)">
<path id="Vector" d="M302.049 149.88C302.093 185.517 288.137 219.783 263.115 245.474C261.607 247.033 260.057 248.554 258.467 250.038C256.045 252.312 253.541 254.499 250.956 256.596C226.774 276.261 196.584 287.312 165.258 287.965C164.215 287.988 163.167 288 162.115 288C137.132 288 105.71 274.829 77.1935 256.596C74.8342 255.088 72.4959 253.545 70.1787 251.966C69.0955 251.236 68.0177 250.494 66.945 249.743C55.9468 242.078 45.5072 233.66 35.7034 224.552C29.2845 218.606 23.2652 212.253 17.6839 205.534C-4.22699 178.857 -9.05975 154.821 22.1779 149.88C25.8764 149.297 29.4658 148.673 32.9463 148.01C37.9878 147.054 42.8127 146.021 47.421 144.912C53.6283 143.423 59.4602 141.808 64.9166 140.068C66.752 139.485 68.5455 138.89 70.2969 138.283C96.1898 129.307 113.52 117.602 125.316 104.901C127.317 102.751 129.162 100.575 130.85 98.3738C133.433 95.0227 135.78 91.5 137.873 87.8308C140.762 82.7327 143.188 77.3925 145.124 71.8725L145.23 71.5693C154.616 44.8464 151.761 20.0595 162.115 11.7635C206.378 -23.7025 261.484 26.8043 287.35 86.3652C288.654 89.3664 289.88 92.3857 291.029 95.4232C291.545 96.78 292.042 98.1393 292.521 99.5012C293.782 103.051 294.925 106.609 295.952 110.176C296.346 111.537 296.721 112.896 297.078 114.254C297.46 115.72 297.827 117.182 298.165 118.643C300.682 129.346 302.049 139.9 302.049 149.88Z" fill="#F2F2F2"/>
<path id="Vector_2" d="M165.259 287.965C164.215 287.988 163.167 288 162.115 288C137.132 288 105.71 274.829 77.1935 256.596C74.8342 255.088 72.496 253.545 70.1787 251.966L72.2111 239.76L133.737 231.697L164.617 255.003L165.259 287.965Z" fill="#2F2E41"/>
<path id="Vector_3" d="M168.22 69.9949H159.453C159.181 69.995 158.921 70.1015 158.729 70.2911C158.537 70.4806 158.429 70.7376 158.429 71.0056V79.6631C158.429 79.7957 158.455 79.9268 158.507 80.0492C158.559 80.1715 158.634 80.2827 158.729 80.3762C158.824 80.4697 158.937 80.5438 159.061 80.5942C159.185 80.6446 159.318 80.6704 159.453 80.67H168.22C168.491 80.6701 168.751 80.5642 168.943 80.3755C169.135 80.1867 169.243 79.9306 169.244 79.6631V71.0056C169.243 70.7378 169.135 70.4811 168.943 70.2918C168.752 70.1024 168.492 69.9957 168.22 69.9949Z" fill="white"/>
<path id="Vector_4" d="M168.22 84.748H159.453C159.181 84.7482 158.921 84.8547 158.729 85.0442C158.537 85.2338 158.429 85.4908 158.429 85.7588V94.4163C158.429 94.5489 158.455 94.68 158.507 94.8024C158.559 94.9247 158.634 95.0359 158.729 95.1294C158.824 95.2229 158.937 95.297 159.061 95.3474C159.185 95.3978 159.318 95.4236 159.453 95.4232H168.22C168.491 95.4233 168.751 95.3174 168.943 95.1287C169.135 94.9399 169.243 94.6838 169.244 94.4163V85.7588C169.244 85.491 169.135 85.2343 168.943 85.0449C168.752 84.8556 168.492 84.7488 168.22 84.748Z" fill="#E6E6E6"/>
<path id="Vector_5" d="M168.22 99.5013H159.453C159.181 99.5014 158.921 99.6079 158.729 99.7975C158.537 99.987 158.429 100.244 158.429 100.512V109.166C158.428 109.299 158.455 109.43 158.506 109.553C158.557 109.676 158.633 109.787 158.728 109.881C158.823 109.975 158.936 110.049 159.061 110.1C159.185 110.151 159.318 110.177 159.453 110.176H168.22C168.492 110.176 168.752 110.07 168.944 109.88C169.136 109.691 169.244 109.434 169.244 109.166V100.512C169.244 100.244 169.135 99.9876 168.943 99.7982C168.752 99.6088 168.492 99.502 168.22 99.5013Z" fill="#E6E6E6"/>
<path id="Vector_6" d="M169.229 115.086C169.185 114.854 169.06 114.643 168.876 114.491C168.692 114.339 168.46 114.256 168.22 114.254H159.453C159.181 114.255 158.921 114.361 158.729 114.551C158.537 114.74 158.429 114.997 158.429 115.265V123.919C158.428 124.052 158.455 124.183 158.506 124.306C158.557 124.429 158.633 124.54 158.728 124.634C158.823 124.728 158.936 124.802 159.061 124.853C159.185 124.904 159.318 124.93 159.453 124.93H168.22C168.492 124.929 168.752 124.823 168.944 124.633C169.136 124.444 169.244 124.187 169.244 123.919V115.265C169.245 115.205 169.24 115.145 169.229 115.086Z" fill="#E6E6E6"/>
<path id="Vector_7" d="M168.618 129.085C168.492 129.034 168.357 129.007 168.22 129.008H159.453C159.318 129.007 159.185 129.033 159.061 129.084C158.936 129.135 158.823 129.209 158.728 129.303C158.633 129.397 158.557 129.509 158.506 129.631C158.455 129.754 158.428 129.886 158.429 130.018V138.672C158.428 138.805 158.454 138.937 158.505 139.06C158.557 139.182 158.632 139.294 158.727 139.388C158.822 139.482 158.936 139.556 159.06 139.607C159.185 139.658 159.318 139.683 159.453 139.683H168.22C168.492 139.683 168.752 139.576 168.944 139.387C169.136 139.197 169.244 138.94 169.244 138.672V130.018C169.244 129.819 169.184 129.625 169.073 129.459C168.962 129.293 168.803 129.163 168.618 129.085Z" fill="#E6E6E6"/>
<path id="Vector_8" d="M186.637 69.9949H177.87C177.598 69.995 177.338 70.1015 177.146 70.2911C176.954 70.4806 176.846 70.7376 176.846 71.0056V79.6631C176.846 79.7957 176.872 79.9268 176.924 80.0492C176.976 80.1715 177.051 80.2827 177.146 80.3762C177.241 80.4697 177.354 80.5438 177.478 80.5942C177.602 80.6446 177.735 80.6704 177.87 80.67H186.637C186.908 80.6701 187.168 80.5642 187.36 80.3755C187.552 80.1867 187.66 79.9306 187.661 79.6631V71.0056C187.661 70.7378 187.552 70.4811 187.36 70.2918C187.169 70.1024 186.909 69.9957 186.637 69.9949Z" fill="#E6E6E6"/>
<path id="Vector_9" d="M186.637 84.748H177.87C177.598 84.7482 177.338 84.8547 177.146 85.0442C176.954 85.2338 176.846 85.4908 176.846 85.7588V94.4163C176.846 94.5489 176.872 94.68 176.924 94.8024C176.976 94.9247 177.051 95.0359 177.146 95.1294C177.241 95.2229 177.354 95.297 177.478 95.3474C177.602 95.3978 177.735 95.4236 177.87 95.4232H186.637C186.908 95.4233 187.168 95.3174 187.36 95.1287C187.552 94.9399 187.66 94.6838 187.661 94.4163V85.7588C187.661 85.491 187.552 85.2343 187.36 85.0449C187.169 84.8556 186.909 84.7488 186.637 84.748Z" fill="#2AD881"/>
<path id="Vector_10" d="M186.637 99.5013H177.87C177.598 99.5014 177.338 99.6079 177.146 99.7975C176.954 99.987 176.846 100.244 176.846 100.512V109.166C176.845 109.299 176.872 109.43 176.923 109.553C176.974 109.676 177.05 109.787 177.145 109.881C177.24 109.975 177.353 110.049 177.478 110.1C177.602 110.151 177.735 110.177 177.87 110.176H186.637C186.909 110.176 187.169 110.07 187.361 109.88C187.553 109.691 187.661 109.434 187.661 109.166V100.512C187.661 100.244 187.552 99.9876 187.36 99.7982C187.169 99.6088 186.909 99.502 186.637 99.5013Z" fill="#2AD881"/>
<path id="Vector_11" d="M186.637 114.254H177.87C177.655 114.255 177.446 114.322 177.272 114.446C177.098 114.57 176.968 114.745 176.901 114.946C176.864 115.049 176.846 115.157 176.846 115.265V123.919C176.845 124.052 176.872 124.183 176.923 124.306C176.974 124.429 177.05 124.54 177.145 124.634C177.24 124.728 177.353 124.802 177.477 124.853C177.602 124.904 177.735 124.93 177.87 124.93H186.637C186.909 124.929 187.169 124.823 187.361 124.633C187.553 124.444 187.661 124.187 187.661 123.919V115.265C187.661 114.997 187.552 114.741 187.36 114.551C187.169 114.362 186.909 114.255 186.637 114.254Z" fill="#2AD881"/>
<path id="Vector_12" d="M186.637 129.008H177.87C177.735 129.007 177.602 129.033 177.478 129.084C177.353 129.135 177.24 129.209 177.145 129.303C177.05 129.397 176.974 129.509 176.923 129.631C176.872 129.754 176.845 129.886 176.846 130.018V138.672C176.845 138.805 176.872 138.936 176.923 139.059C176.974 139.182 177.05 139.293 177.145 139.387C177.24 139.481 177.353 139.556 177.478 139.606C177.602 139.657 177.735 139.683 177.87 139.683H186.637C186.909 139.683 187.169 139.576 187.361 139.387C187.553 139.197 187.661 138.94 187.661 138.672V130.018C187.661 129.75 187.553 129.493 187.361 129.304C187.169 129.114 186.909 129.008 186.637 129.008Z" fill="#E6E6E6"/>
<path id="Vector_13" d="M205.055 69.9949H196.288C196.016 69.995 195.756 70.1015 195.564 70.2911C195.372 70.4806 195.264 70.7376 195.264 71.0056V79.6631C195.264 79.7957 195.29 79.9268 195.342 80.0492C195.394 80.1715 195.469 80.2827 195.564 80.3762C195.659 80.4697 195.772 80.5438 195.896 80.5942C196.02 80.6446 196.153 80.6704 196.288 80.67H205.055C205.326 80.6701 205.586 80.5642 205.778 80.3755C205.97 80.1867 206.078 79.9306 206.079 79.6631V71.0056C206.078 70.7378 205.97 70.4811 205.778 70.2918C205.587 70.1024 205.327 69.9957 205.055 69.9949Z" fill="#2AD881"/>
<path id="Vector_14" d="M205.055 84.748H196.288C196.016 84.7482 195.756 84.8547 195.564 85.0442C195.372 85.2338 195.264 85.4908 195.264 85.7588V94.4163C195.264 94.5489 195.29 94.68 195.342 94.8024C195.394 94.9247 195.469 95.0359 195.564 95.1294C195.659 95.2229 195.772 95.297 195.896 95.3474C196.02 95.3978 196.153 95.4236 196.288 95.4232H205.055C205.326 95.4233 205.586 95.3174 205.778 95.1287C205.97 94.9399 206.078 94.6838 206.079 94.4163V85.7588C206.078 85.491 205.97 85.2343 205.778 85.0449C205.587 84.8556 205.327 84.7488 205.055 84.748Z" fill="#2AD881"/>
<path id="Vector_15" d="M205.055 99.5013H196.288C196.016 99.5014 195.756 99.6079 195.564 99.7975C195.372 99.987 195.264 100.244 195.264 100.512V109.166C195.263 109.299 195.29 109.43 195.341 109.553C195.392 109.676 195.468 109.787 195.563 109.881C195.658 109.975 195.771 110.049 195.895 110.1C196.02 110.151 196.153 110.177 196.288 110.176H205.055C205.327 110.176 205.587 110.07 205.779 109.88C205.971 109.691 206.079 109.434 206.079 109.166V100.512C206.078 100.244 205.97 99.9876 205.778 99.7982C205.587 99.6088 205.327 99.502 205.055 99.5013Z" fill="#E6E6E6"/>
<path id="Vector_16" d="M205.055 114.254H196.288C196.016 114.255 195.756 114.361 195.564 114.551C195.372 114.74 195.264 114.997 195.264 115.265V123.919C195.263 124.052 195.29 124.183 195.341 124.306C195.392 124.429 195.468 124.54 195.563 124.634C195.658 124.728 195.771 124.802 195.895 124.853C196.02 124.904 196.153 124.93 196.288 124.93H205.055C205.327 124.929 205.587 124.823 205.779 124.633C205.971 124.444 206.079 124.187 206.079 123.919V115.265C206.078 114.997 205.97 114.741 205.778 114.551C205.587 114.362 205.327 114.255 205.055 114.254Z" fill="#2AD881"/>
<path id="Vector_17" d="M205.055 129.008H196.288C196.153 129.007 196.02 129.033 195.895 129.084C195.771 129.135 195.658 129.209 195.563 129.303C195.468 129.397 195.392 129.509 195.341 129.631C195.29 129.754 195.263 129.886 195.264 130.018V138.672C195.263 138.805 195.29 138.936 195.341 139.059C195.392 139.182 195.468 139.293 195.563 139.387C195.658 139.481 195.771 139.556 195.895 139.606C196.02 139.657 196.153 139.683 196.288 139.683H205.055C205.327 139.683 205.587 139.576 205.779 139.387C205.971 139.197 206.079 138.94 206.079 138.672V130.018C206.079 129.75 205.971 129.493 205.779 129.304C205.587 129.114 205.327 129.008 205.055 129.008Z" fill="#2AD881"/>
<path id="Vector_18" d="M223.472 69.9949H214.705C214.433 69.995 214.173 70.1015 213.981 70.2911C213.789 70.4806 213.681 70.7376 213.681 71.0056V79.6631C213.681 79.7957 213.707 79.9268 213.759 80.0492C213.811 80.1716 213.886 80.2827 213.981 80.3762C214.076 80.4697 214.189 80.5438 214.313 80.5942C214.437 80.6447 214.57 80.6704 214.705 80.67H223.472C223.743 80.6701 224.003 80.5642 224.195 80.3755C224.387 80.1867 224.495 79.9306 224.496 79.6631V71.0056C224.496 70.7378 224.387 70.4811 224.195 70.2918C224.004 70.1024 223.744 69.9957 223.472 69.9949Z" fill="#2AD881"/>
<path id="Vector_19" d="M223.472 84.748H214.705C214.433 84.7482 214.173 84.8547 213.981 85.0442C213.789 85.2338 213.681 85.4908 213.681 85.7588V94.4163C213.681 94.5489 213.707 94.6801 213.759 94.8024C213.811 94.9248 213.886 95.0359 213.981 95.1294C214.076 95.2229 214.189 95.297 214.313 95.3474C214.437 95.3978 214.57 95.4236 214.705 95.4232H223.472C223.743 95.4233 224.003 95.3174 224.195 95.1287C224.387 94.9399 224.495 94.6838 224.496 94.4163V85.7588C224.496 85.491 224.387 85.2343 224.195 85.0449C224.004 84.8556 223.744 84.7488 223.472 84.748Z" fill="white"/>
<path id="Vector_20" d="M223.472 99.5013H214.705C214.433 99.5014 214.173 99.6079 213.981 99.7975C213.789 99.987 213.681 100.244 213.681 100.512V109.166C213.68 109.299 213.707 109.43 213.758 109.553C213.809 109.676 213.885 109.787 213.98 109.881C214.075 109.975 214.188 110.049 214.313 110.1C214.437 110.151 214.57 110.177 214.705 110.176H223.472C223.744 110.176 224.004 110.07 224.196 109.88C224.388 109.691 224.496 109.434 224.496 109.166V100.512C224.496 100.244 224.387 99.9876 224.195 99.7982C224.004 99.6088 223.744 99.502 223.472 99.5013Z" fill="white"/>
<path id="Vector_21" d="M223.472 114.254H214.705C214.433 114.255 214.173 114.361 213.981 114.551C213.789 114.74 213.681 114.997 213.681 115.265V123.919C213.68 124.052 213.707 124.183 213.758 124.306C213.809 124.429 213.885 124.54 213.98 124.634C214.075 124.728 214.188 124.803 214.313 124.853C214.437 124.904 214.57 124.93 214.705 124.93H223.472C223.744 124.929 224.004 124.823 224.196 124.633C224.388 124.444 224.496 124.187 224.496 123.919V115.265C224.496 114.997 224.387 114.741 224.195 114.551C224.004 114.362 223.744 114.255 223.472 114.254Z" fill="#E6E6E6"/>
<path id="Vector_22" d="M223.472 129.008H214.705C214.57 129.007 214.437 129.033 214.313 129.084C214.188 129.135 214.075 129.209 213.98 129.303C213.885 129.397 213.809 129.508 213.758 129.631C213.707 129.754 213.68 129.886 213.681 130.018V138.672C213.68 138.805 213.707 138.936 213.758 139.059C213.809 139.182 213.885 139.293 213.98 139.387C214.075 139.481 214.188 139.556 214.313 139.606C214.437 139.657 214.57 139.683 214.705 139.683H223.472C223.744 139.683 224.004 139.576 224.196 139.387C224.388 139.197 224.496 138.94 224.496 138.672V130.018C224.496 129.75 224.388 129.493 224.196 129.304C224.004 129.114 223.744 129.008 223.472 129.008Z" fill="#2AD881"/>
<path id="Vector_23" d="M241.889 69.9949H233.118C232.847 69.9958 232.587 70.1027 232.396 70.2922C232.205 70.4816 232.098 70.7382 232.098 71.0056V79.6631C232.098 79.9302 232.205 80.1862 232.397 80.3751C232.588 80.5639 232.847 80.67 233.118 80.67H241.889C242.16 80.6701 242.42 80.5642 242.612 80.3755C242.804 80.1867 242.912 79.9306 242.913 79.6631V71.0056C242.913 70.7378 242.804 70.4811 242.612 70.2918C242.421 70.1024 242.161 69.9957 241.889 69.9949Z" fill="white"/>
<path id="Vector_24" d="M241.889 84.748H233.118C232.847 84.749 232.587 84.8559 232.396 85.0454C232.205 85.2348 232.098 85.4914 232.098 85.7588V94.4163C232.098 94.6834 232.205 94.9394 232.397 95.1283C232.588 95.3171 232.847 95.4232 233.118 95.4232H241.889C242.16 95.4233 242.42 95.3174 242.612 95.1287C242.804 94.9399 242.912 94.6838 242.913 94.4163V85.7588C242.913 85.491 242.804 85.2343 242.613 85.0449C242.421 84.8556 242.161 84.7488 241.889 84.748Z" fill="white"/>
<path id="Vector_25" d="M241.889 99.5013H233.118C232.847 99.5022 232.587 99.6091 232.396 99.7986C232.205 99.9881 232.098 100.245 232.098 100.512V109.166C232.097 109.298 232.123 109.429 232.174 109.552C232.226 109.675 232.301 109.786 232.395 109.88C232.49 109.974 232.603 110.048 232.727 110.099C232.851 110.15 232.984 110.176 233.118 110.176H241.889C242.161 110.176 242.421 110.07 242.613 109.88C242.805 109.691 242.913 109.434 242.913 109.166V100.512C242.913 100.244 242.804 99.9876 242.613 99.7982C242.421 99.6088 242.161 99.502 241.889 99.5013Z" fill="white"/>
<path id="Vector_26" d="M241.889 114.254H233.118C232.847 114.255 232.587 114.362 232.396 114.552C232.205 114.741 232.098 114.998 232.098 115.265V123.919C232.097 124.051 232.123 124.183 232.174 124.305C232.226 124.428 232.301 124.539 232.395 124.633C232.49 124.727 232.603 124.801 232.727 124.852C232.851 124.903 232.984 124.929 233.118 124.93H241.889C242.161 124.929 242.421 124.823 242.613 124.633C242.805 124.444 242.913 124.187 242.913 123.919V115.265C242.913 114.997 242.804 114.741 242.613 114.551C242.421 114.362 242.161 114.255 241.889 114.254Z" fill="#2AD881"/>
<path id="Vector_27" d="M241.889 129.008H233.118C232.984 129.008 232.851 129.034 232.727 129.085C232.603 129.136 232.49 129.21 232.395 129.304C232.301 129.398 232.226 129.509 232.174 129.632C232.123 129.755 232.097 129.886 232.098 130.018V138.672C232.097 138.805 232.123 138.936 232.174 139.058C232.226 139.181 232.301 139.292 232.395 139.386C232.49 139.48 232.603 139.555 232.727 139.605C232.851 139.656 232.984 139.683 233.118 139.683H241.889C242.161 139.683 242.421 139.576 242.613 139.387C242.805 139.197 242.913 138.94 242.913 138.672V130.018C242.913 129.75 242.805 129.493 242.613 129.304C242.421 129.114 242.161 129.008 241.889 129.008Z" fill="#E6E6E6"/>
<path id="Vector_28" d="M260.307 69.9949H251.536C251.265 69.9958 251.005 70.1027 250.814 70.2922C250.623 70.4816 250.516 70.7382 250.516 71.0056V79.6631C250.516 79.9302 250.623 80.1862 250.814 80.3751C251.006 80.5639 251.265 80.67 251.536 80.67H260.307C260.578 80.6701 260.838 80.5642 261.03 80.3755C261.222 80.1867 261.33 79.9306 261.331 79.6631V71.0056C261.33 70.7378 261.222 70.4812 261.03 70.2918C260.839 70.1024 260.579 69.9957 260.307 69.9949Z" fill="white"/>
<path id="Vector_29" d="M260.307 84.748H251.536C251.265 84.749 251.005 84.8559 250.814 85.0454C250.623 85.2348 250.516 85.4914 250.516 85.7588V94.4163C250.516 94.6834 250.623 94.9394 250.814 95.1283C251.006 95.3171 251.265 95.4232 251.536 95.4232H260.307C260.578 95.4233 260.838 95.3174 261.03 95.1287C261.222 94.9399 261.33 94.6838 261.331 94.4163V85.7588C261.331 85.491 261.222 85.2343 261.03 85.045C260.839 84.8556 260.579 84.7488 260.307 84.748Z" fill="white"/>
<path id="Vector_30" d="M260.307 99.5013H251.536C251.265 99.5022 251.005 99.6091 250.814 99.7986C250.623 99.9881 250.516 100.245 250.516 100.512V109.166C250.515 109.298 250.541 109.429 250.592 109.552C250.644 109.675 250.719 109.786 250.813 109.88C250.908 109.974 251.021 110.048 251.145 110.099C251.269 110.15 251.402 110.176 251.536 110.176H260.307C260.579 110.176 260.839 110.07 261.031 109.88C261.223 109.691 261.331 109.434 261.331 109.166V100.512C261.331 100.244 261.222 99.9876 261.03 99.7982C260.839 99.6088 260.579 99.502 260.307 99.5013Z" fill="#2AD881"/>
<path id="Vector_31" d="M260.307 114.254H251.536C251.265 114.255 251.005 114.362 250.814 114.552C250.623 114.741 250.516 114.998 250.516 115.265V123.919C250.515 124.051 250.541 124.183 250.592 124.305C250.644 124.428 250.719 124.539 250.813 124.633C250.908 124.727 251.021 124.801 251.145 124.852C251.269 124.903 251.402 124.929 251.536 124.93H260.307C260.579 124.929 260.839 124.823 261.031 124.633C261.223 124.444 261.331 124.187 261.331 123.919V115.265C261.33 114.997 261.222 114.741 261.03 114.551C260.839 114.362 260.579 114.255 260.307 114.254Z" fill="#E6E6E6"/>
<path id="Vector_32" d="M260.307 129.008H251.536C251.402 129.008 251.269 129.034 251.145 129.085C251.021 129.136 250.908 129.21 250.813 129.304C250.719 129.398 250.644 129.509 250.592 129.632C250.541 129.755 250.515 129.886 250.516 130.018V138.672C250.515 138.805 250.541 138.936 250.592 139.058C250.644 139.181 250.719 139.292 250.813 139.386C250.908 139.48 251.021 139.555 251.145 139.605C251.269 139.656 251.402 139.683 251.536 139.683H260.307C260.579 139.683 260.839 139.576 261.031 139.387C261.223 139.197 261.331 138.94 261.331 138.672V130.018C261.331 129.75 261.223 129.493 261.031 129.304C260.839 129.114 260.579 129.008 260.307 129.008Z" fill="white"/>
<path id="Vector_33" d="M278.724 69.9949H269.953C269.682 69.9958 269.422 70.1027 269.231 70.2922C269.04 70.4816 268.933 70.7382 268.933 71.0056V79.6631C268.933 79.9302 269.04 80.1862 269.231 80.3751C269.423 80.5639 269.682 80.67 269.953 80.67H278.724C278.995 80.6701 279.255 80.5642 279.447 80.3755C279.639 80.1867 279.747 79.9306 279.748 79.6631V71.0056C279.747 70.7378 279.639 70.4812 279.447 70.2918C279.256 70.1024 278.996 69.9957 278.724 69.9949Z" fill="#2AD881"/>
<path id="Vector_34" d="M278.724 84.748H269.953C269.682 84.749 269.422 84.8559 269.231 85.0454C269.04 85.2348 268.933 85.4914 268.933 85.7588V94.4163C268.933 94.6834 269.04 94.9394 269.231 95.1283C269.423 95.3171 269.682 95.4232 269.953 95.4232H278.724C278.995 95.4233 279.255 95.3174 279.447 95.1287C279.639 94.9399 279.747 94.6838 279.748 94.4163V85.7588C279.747 85.491 279.639 85.2343 279.447 85.045C279.256 84.8556 278.996 84.7488 278.724 84.748Z" fill="#2AD881"/>
<path id="Vector_35" d="M278.724 99.5013H269.953C269.682 99.5022 269.422 99.6091 269.231 99.7986C269.04 99.9881 268.933 100.245 268.933 100.512V109.166C268.932 109.298 268.958 109.429 269.009 109.552C269.061 109.675 269.136 109.786 269.23 109.88C269.325 109.974 269.438 110.048 269.562 110.099C269.686 110.15 269.818 110.176 269.953 110.176H278.724C278.996 110.176 279.256 110.07 279.448 109.88C279.64 109.691 279.748 109.434 279.748 109.166V100.512C279.747 100.244 279.639 99.9876 279.447 99.7982C279.256 99.6088 278.996 99.502 278.724 99.5013Z" fill="#E6E6E6"/>
<path id="Vector_36" d="M278.724 114.254H269.953C269.682 114.255 269.422 114.362 269.231 114.552C269.04 114.741 268.933 114.998 268.933 115.265V123.919C268.932 124.051 268.958 124.183 269.009 124.305C269.061 124.428 269.136 124.539 269.23 124.633C269.325 124.727 269.438 124.801 269.562 124.852C269.686 124.903 269.818 124.929 269.953 124.93H278.724C278.996 124.929 279.256 124.823 279.448 124.633C279.64 124.444 279.748 124.187 279.748 123.919V115.265C279.747 114.997 279.639 114.741 279.447 114.551C279.256 114.362 278.996 114.255 278.724 114.254Z" fill="white"/>
<path id="Vector_37" d="M278.724 129.008H269.953C269.818 129.008 269.686 129.034 269.562 129.085C269.438 129.136 269.325 129.21 269.23 129.304C269.136 129.398 269.061 129.509 269.009 129.632C268.958 129.755 268.932 129.886 268.933 130.018V138.672C268.932 138.805 268.958 138.936 269.009 139.058C269.061 139.181 269.136 139.292 269.23 139.386C269.325 139.48 269.438 139.555 269.562 139.605C269.686 139.656 269.818 139.683 269.953 139.683H278.724C278.996 139.683 279.256 139.576 279.448 139.387C279.64 139.197 279.748 138.94 279.748 138.672V130.018C279.748 129.75 279.64 129.493 279.448 129.304C279.256 129.114 278.996 129.008 278.724 129.008Z" fill="#2AD881"/>
<path id="Vector_38" d="M297.141 69.9949H288.37C288.099 69.9958 287.839 70.1027 287.648 70.2922C287.457 70.4816 287.35 70.7382 287.35 71.0056V79.6631C287.35 79.9302 287.457 80.1862 287.648 80.3751C287.84 80.5639 288.099 80.67 288.37 80.67H297.141C297.412 80.6701 297.672 80.5642 297.864 80.3755C298.056 80.1867 298.164 79.9306 298.165 79.6631V71.0056C298.164 70.7378 298.056 70.4812 297.864 70.2918C297.673 70.1024 297.413 69.9957 297.141 69.9949Z" fill="#2AD881"/>
<path id="Vector_39" d="M297.141 84.748H288.37C288.099 84.749 287.839 84.8559 287.648 85.0454C287.457 85.2348 287.35 85.4914 287.35 85.7588V94.4163C287.35 94.6834 287.457 94.9394 287.648 95.1283C287.84 95.3171 288.099 95.4232 288.37 95.4232H297.141C297.412 95.4233 297.672 95.3174 297.864 95.1287C298.056 94.9399 298.164 94.6838 298.165 94.4163V85.7588C298.164 85.491 298.056 85.2343 297.864 85.045C297.673 84.8556 297.413 84.7488 297.141 84.748Z" fill="#2AD881"/>
<path id="Vector_40" d="M297.141 99.5013H288.37C288.099 99.5022 287.839 99.6091 287.648 99.7986C287.457 99.9881 287.35 100.245 287.35 100.512V109.166C287.349 109.298 287.375 109.429 287.426 109.552C287.478 109.675 287.553 109.786 287.647 109.88C287.742 109.974 287.855 110.048 287.979 110.099C288.103 110.15 288.235 110.176 288.37 110.176H297.141C297.413 110.176 297.673 110.07 297.865 109.88C298.057 109.691 298.165 109.434 298.165 109.166V100.512C298.164 100.244 298.056 99.9876 297.864 99.7982C297.673 99.6088 297.413 99.502 297.141 99.5013Z" fill="#E6E6E6"/>
<path id="Vector_41" d="M297.141 114.254H288.37C288.099 114.255 287.839 114.362 287.648 114.552C287.457 114.741 287.35 114.998 287.35 115.265V123.919C287.349 124.051 287.375 124.183 287.426 124.305C287.478 124.428 287.553 124.539 287.647 124.633C287.742 124.727 287.855 124.801 287.979 124.852C288.103 124.903 288.235 124.929 288.37 124.93H297.141C297.413 124.929 297.673 124.823 297.865 124.633C298.057 124.444 298.165 124.187 298.165 123.919V115.265C298.164 114.997 298.056 114.741 297.864 114.551C297.673 114.362 297.413 114.255 297.141 114.254Z" fill="#2AD881"/>
<path id="Vector_42" d="M297.141 129.008H288.37C288.235 129.008 288.103 129.034 287.979 129.085C287.855 129.136 287.742 129.21 287.647 129.304C287.553 129.398 287.478 129.509 287.426 129.632C287.375 129.755 287.349 129.886 287.35 130.018V138.672C287.349 138.805 287.375 138.936 287.426 139.058C287.478 139.181 287.553 139.292 287.647 139.386C287.742 139.48 287.855 139.555 287.979 139.605C288.103 139.656 288.235 139.683 288.37 139.683H297.141C297.413 139.683 297.673 139.576 297.865 139.387C298.057 139.197 298.165 138.94 298.165 138.672V130.018C298.165 129.75 298.057 129.493 297.865 129.304C297.673 129.114 297.413 129.008 297.141 129.008Z" fill="#2AD881"/>
<path id="Vector_43" d="M315.558 69.9949H306.787C306.516 69.9958 306.256 70.1027 306.065 70.2922C305.874 70.4816 305.767 70.7382 305.767 71.0056V79.6631C305.767 79.9302 305.874 80.1862 306.065 80.3751C306.257 80.5639 306.516 80.67 306.787 80.67H315.558C315.829 80.6701 316.089 80.5642 316.281 80.3755C316.473 80.1867 316.581 79.9306 316.582 79.6631V71.0056C316.581 70.7378 316.473 70.4812 316.281 70.2918C316.09 70.1024 315.83 69.9957 315.558 69.9949Z" fill="#E6E6E6"/>
<path id="Vector_44" d="M315.558 84.748H306.787C306.516 84.749 306.256 84.8559 306.065 85.0454C305.874 85.2348 305.766 85.4914 305.767 85.7588V94.4163C305.767 94.6834 305.874 94.9394 306.065 95.1283C306.257 95.3171 306.516 95.4232 306.787 95.4232H315.558C315.829 95.4233 316.089 95.3174 316.281 95.1287C316.473 94.9399 316.581 94.6838 316.582 94.4163V85.7588C316.581 85.491 316.473 85.2343 316.281 85.045C316.09 84.8556 315.83 84.7488 315.558 84.748Z" fill="#2AD881"/>
<path id="Vector_45" d="M315.558 99.5013H306.787C306.516 99.5022 306.256 99.6091 306.065 99.7986C305.874 99.9881 305.767 100.245 305.767 100.512V109.166C305.766 109.298 305.792 109.429 305.843 109.552C305.894 109.675 305.97 109.786 306.064 109.88C306.159 109.974 306.272 110.048 306.396 110.099C306.52 110.15 306.652 110.176 306.787 110.176H315.558C315.83 110.176 316.09 110.07 316.282 109.88C316.474 109.691 316.582 109.434 316.582 109.166V100.512C316.581 100.244 316.473 99.9876 316.281 99.7982C316.09 99.6088 315.83 99.502 315.558 99.5013Z" fill="#2AD881"/>
<path id="Vector_46" d="M315.558 114.254H306.787C306.516 114.255 306.256 114.362 306.065 114.552C305.874 114.741 305.767 114.998 305.767 115.265V123.919C305.766 124.051 305.792 124.183 305.843 124.305C305.894 124.428 305.97 124.539 306.064 124.633C306.159 124.727 306.272 124.801 306.396 124.852C306.52 124.903 306.652 124.929 306.787 124.93H315.558C315.83 124.929 316.09 124.823 316.282 124.633C316.474 124.444 316.582 124.187 316.582 123.919V115.265C316.581 114.997 316.473 114.741 316.281 114.551C316.09 114.362 315.83 114.255 315.558 114.254Z" fill="#2AD881"/>
<path id="Vector_47" d="M315.558 129.008H306.787C306.652 129.008 306.52 129.034 306.396 129.085C306.272 129.136 306.159 129.21 306.064 129.304C305.97 129.398 305.894 129.509 305.843 129.632C305.792 129.755 305.766 129.886 305.767 130.018V138.672C305.766 138.805 305.792 138.936 305.843 139.058C305.894 139.181 305.97 139.292 306.064 139.386C306.159 139.48 306.272 139.555 306.396 139.605C306.52 139.656 306.652 139.683 306.787 139.683H315.558C315.83 139.683 316.09 139.576 316.282 139.387C316.474 139.197 316.582 138.94 316.582 138.672V130.018C316.582 129.75 316.474 129.493 316.282 129.304C316.09 129.114 315.83 129.008 315.558 129.008Z" fill="#E6E6E6"/>
<path id="Vector_48" d="M333.976 69.9949H325.205C324.934 69.9958 324.674 70.1027 324.483 70.2922C324.292 70.4816 324.184 70.7382 324.185 71.0056V79.6631C324.185 79.9302 324.292 80.1862 324.483 80.3751C324.675 80.5639 324.934 80.67 325.205 80.67H333.976C334.247 80.6701 334.507 80.5642 334.699 80.3755C334.891 80.1867 334.999 79.9306 335 79.6631V71.0056C334.999 70.7378 334.891 70.4812 334.699 70.2918C334.508 70.1024 334.248 69.9957 333.976 69.9949Z" fill="#E6E6E6"/>
<path id="Vector_49" d="M333.976 84.748H325.205C324.934 84.749 324.674 84.8559 324.483 85.0454C324.292 85.2348 324.184 85.4914 324.185 85.7588V94.4163C324.185 94.6834 324.292 94.9394 324.483 95.1283C324.675 95.3171 324.934 95.4232 325.205 95.4232H333.976C334.247 95.4233 334.507 95.3174 334.699 95.1287C334.891 94.9399 334.999 94.6838 335 94.4163V85.7588C334.999 85.491 334.891 85.2343 334.699 85.045C334.508 84.8556 334.248 84.7488 333.976 84.748Z" fill="#E6E6E6"/>
<path id="Vector_50" d="M333.976 99.5013H325.205C324.934 99.5022 324.674 99.6091 324.483 99.7986C324.292 99.9881 324.184 100.245 324.185 100.512V109.166C324.184 109.298 324.21 109.429 324.261 109.552C324.312 109.675 324.388 109.786 324.482 109.88C324.577 109.974 324.69 110.048 324.814 110.099C324.938 110.15 325.07 110.176 325.205 110.176H333.976C334.248 110.176 334.508 110.07 334.7 109.88C334.892 109.691 335 109.434 335 109.166V100.512C334.999 100.244 334.891 99.9876 334.699 99.7982C334.508 99.6088 334.248 99.502 333.976 99.5013Z" fill="#2AD881"/>
<path id="Vector_51" d="M333.976 114.254H325.205C324.934 114.255 324.674 114.362 324.483 114.552C324.292 114.741 324.184 114.998 324.185 115.265V123.919C324.184 124.051 324.21 124.183 324.261 124.305C324.312 124.428 324.388 124.539 324.482 124.633C324.577 124.727 324.69 124.801 324.814 124.852C324.938 124.903 325.07 124.929 325.205 124.93H333.976C334.248 124.929 334.508 124.823 334.7 124.633C334.892 124.444 335 124.187 335 123.919V115.265C334.999 114.997 334.891 114.741 334.699 114.551C334.508 114.362 334.248 114.255 333.976 114.254Z" fill="#E6E6E6"/>
<path id="Vector_52" d="M333.976 129.008H325.205C325.07 129.008 324.938 129.034 324.814 129.085C324.69 129.136 324.577 129.21 324.482 129.304C324.388 129.398 324.312 129.509 324.261 129.632C324.21 129.755 324.184 129.886 324.185 130.018V138.672C324.184 138.805 324.21 138.936 324.261 139.058C324.312 139.181 324.388 139.292 324.482 139.386C324.577 139.48 324.69 139.555 324.814 139.605C324.938 139.656 325.07 139.683 325.205 139.683H333.976C334.248 139.683 334.508 139.576 334.7 139.387C334.892 139.197 335 138.94 335 138.672V130.018C335 129.75 334.892 129.493 334.7 129.304C334.508 129.114 334.248 129.008 333.976 129.008Z" fill="#E6E6E6"/>
<path id="Vector_53" d="M132.377 256.597H132.133L132.342 256.57L132.377 256.597Z" fill="#2F2E41"/>
<path id="ab6171fa-7d69-4734-b81c-8dff60f9761b" d="M111.391 95.2659C126.253 95.2659 138.301 83.3744 138.301 68.7055C138.301 54.0366 126.253 42.1451 111.391 42.1451C96.5294 42.1451 84.4814 54.0366 84.4814 68.7055C84.4814 83.3744 96.5294 95.2659 111.391 95.2659Z" fill="#FFB6B6"/>
<path id="bf427902-b9bf-4946-b5d7-5c1c7e04535e" d="M134.957 49.2319C134.957 49.2319 141.996 35.9517 126.511 34.7444C126.511 34.7444 113.311 22.9254 99.856 32.5837C99.856 32.5837 92.517 32.5837 88.5037 40.7808C88.5037 40.7808 82.7316 38.6201 81.4631 44.4027C81.4631 44.4027 77.2395 56.4756 81.4631 67.3412C85.6868 78.2068 87.0897 79.4141 87.0897 79.4141C87.0897 79.4141 80.1493 56.6338 97.0427 55.4264C113.936 54.2191 132.84 43.7991 134.248 57.0792C135.656 70.3594 137.774 73.6315 137.774 73.6315C137.774 73.6315 151.146 54.6647 134.957 49.2319Z" fill="#2F2E41"/>
<path id="Vector_54" d="M181.002 134.163L180.915 134.613L179.942 139.683L173.219 174.748L172.821 176.813L171.986 181.178L170.844 187.134L168.311 200.332L167.587 204.115L167.315 205.534L167.22 206.031L166.468 209.946L166.24 211.128L164.404 224.552L162.801 236.249L168.166 241.544L164.967 244.701L162.868 256.569L162.872 256.597H77.1939C73.7278 254.381 70.3117 252.096 66.9454 249.743L67.6505 244.533C67.6505 244.533 70.0767 235.231 69.0565 234.119C68.0404 233.007 65.811 231.02 65.811 231.02L68.6194 224.552L69.0093 223.654L68.3555 210.269L68.3398 209.946L68.1231 205.534L68.0955 204.966L68.0522 204.115L67.2211 187.134L67.2054 186.854L66.9534 181.707L66.717 176.813L66.6146 174.748L65.6024 154.094L64.917 140.068L64.3184 127.857L66.7249 127.052L92.4642 118.418L103.126 104.738L125.317 104.901L136.18 104.983L154.305 121.575L158.429 123.518L158.461 123.534L161.419 124.93L168.918 128.463L176.847 132.203L180.915 134.12L181.002 134.163Z" fill="#CACACA"/>
<path id="Vector_55" d="M105.993 216.75C104.367 217.372 102.623 217.634 100.883 217.518C99.1427 217.403 97.4496 216.912 95.9226 216.081C94.3956 215.249 93.0719 214.098 92.0446 212.707C91.0174 211.316 90.3116 209.719 89.977 208.03L48.0068 202.153L62.5968 185.863L100.216 193.942C103.128 193.575 106.076 194.276 108.5 195.911C110.924 197.546 112.656 200.002 113.368 202.813C114.081 205.624 113.723 208.596 112.364 211.165C111.005 213.733 108.738 215.72 105.993 216.75Z" fill="#FFB6B6"/>
<path id="Vector_56" d="M87.2806 187.134C86.5031 186.161 85.4025 185.491 84.173 185.241L66.9531 181.707L65.1846 181.345C64.1569 181.134 63.186 180.71 62.3355 180.103C61.485 179.495 60.7742 178.717 60.2494 177.819C59.705 176.877 59.3757 175.829 59.2844 174.748C59.2023 173.766 59.3215 172.777 59.6349 171.84L65.6021 154.094L69.4738 142.579C69.943 141.19 70.2199 139.745 70.297 138.283C70.5127 134.237 69.2445 130.25 66.7246 127.052C64.5092 124.241 61.4365 122.208 57.9604 121.253C54.4843 120.298 50.7893 120.472 47.4211 121.75C47.3226 121.785 47.2202 121.823 47.1217 121.862C44.7063 122.814 42.5482 124.308 40.8181 126.225C39.0879 128.141 37.8332 130.429 37.1529 132.907L32.9464 148.01L24.2695 179.145C23.4009 182.265 23.2254 185.533 23.7551 188.725C24.2847 191.918 25.507 194.96 27.3382 197.643C29.1695 200.326 31.5665 202.587 34.3651 204.271C37.1638 205.955 40.298 207.022 43.5533 207.4L68.3552 210.269L79.8325 211.598C81.1597 211.756 82.4982 211.414 83.5814 210.641C84.6647 209.868 85.4131 208.72 85.6775 207.427C85.6961 207.357 85.7105 207.285 85.7208 207.213L85.9966 205.534L88.3322 191.391L88.3558 191.247C88.4775 190.525 88.4447 189.787 88.2595 189.078C88.0743 188.37 87.7408 187.707 87.2806 187.134Z" fill="#CACACA"/>
<path id="Vector_57" d="M132.727 217.203C134.426 217.592 136.19 217.609 137.896 217.253C139.602 216.896 141.209 216.174 142.601 215.139C143.994 214.103 145.14 212.779 145.959 211.259C146.777 209.739 147.248 208.06 147.337 206.341L188.049 194.681L171.277 180.585L135.188 193.819C132.253 193.861 129.435 194.965 127.268 196.921C125.102 198.877 123.738 201.55 123.434 204.432C123.131 207.315 123.909 210.207 125.622 212.56C127.335 214.914 129.863 216.566 132.727 217.203Z" fill="#FFB6B6"/>
<path id="Vector_58" d="M208.262 168.598L188.899 124.615C187.315 121.004 184.487 118.063 180.915 116.315C179.811 115.778 178.652 115.361 177.457 115.071C177.272 115.024 177.087 114.981 176.902 114.946C174.368 114.401 171.741 114.449 169.229 115.086C166.934 115.668 164.788 116.722 162.933 118.177C161.077 119.633 159.554 121.458 158.461 123.534C158.449 123.551 158.438 123.569 158.429 123.588C157.209 125.919 156.56 128.5 156.535 131.123C156.509 133.746 157.108 136.339 158.284 138.691L158.524 139.166L172.207 166.289C172.674 167.217 172.937 168.231 172.979 169.266C173.021 170.301 172.841 171.333 172.451 172.295C172.06 173.256 171.468 174.125 170.713 174.845C169.959 175.564 169.058 176.118 168.071 176.471L167.11 176.813L149.827 182.974C148.53 183.431 147.464 184.367 146.852 185.584C146.24 186.802 146.13 188.206 146.546 189.502L146.59 189.638L151.434 204.939C151.458 205.009 151.481 205.079 151.509 205.149C151.552 205.281 151.604 205.41 151.667 205.534C152.181 206.673 153.092 207.594 154.233 208.131C155.375 208.668 156.673 208.785 157.894 208.461L167.22 206.031L169.123 205.534L193.208 199.255C196.377 198.429 199.328 196.936 201.858 194.879C204.388 192.823 206.438 190.251 207.868 187.339C209.298 184.428 210.073 181.246 210.141 178.011C210.209 174.777 209.568 171.566 208.262 168.598Z" fill="#CACACA"/>
<path id="Vector_59" d="M17.6836 205.534C23.2649 212.253 29.2841 218.606 35.7031 224.552H213.72C215.435 224.554 217.079 225.228 218.291 226.425C219.504 227.623 220.185 229.246 220.187 230.939L220.443 275.463C231.394 270.496 241.65 264.155 250.956 256.596C253.54 254.501 256.044 252.315 258.467 250.038C260.054 248.553 261.604 247.032 263.115 245.474C274.444 233.825 283.618 220.307 290.221 205.534H17.6836Z" fill="#3F3D56"/>
<path id="Vector_60" d="M263.115 245.474C261.606 247.033 260.057 248.554 258.467 250.038H220.573V245.474H263.115Z" fill="white"/>
<path id="Vector_61" d="M180.647 99.5012C180.46 99.1602 180.183 98.8754 179.845 98.677C179.507 98.4786 179.122 98.3738 178.729 98.3739H49.6029C49.024 98.3754 48.4693 98.6033 48.0603 99.0077C47.6513 99.4121 47.4214 99.96 47.4209 100.531V176.813H180.915V100.531C180.917 100.171 180.824 99.8162 180.647 99.5012Z" fill="#3F3D56"/>
<path id="Vector_62" d="M47.3037 174.747V184.161C47.3037 184.551 47.3816 184.937 47.5329 185.298C47.6842 185.658 47.9059 185.986 48.1855 186.262C48.4651 186.538 48.797 186.757 49.1622 186.906C49.5275 187.055 49.919 187.132 50.3144 187.132H99.586V205.709H98.9315C98.8801 205.709 98.8292 205.719 98.7818 205.739C98.7343 205.758 98.6912 205.787 98.6549 205.823C98.6186 205.858 98.5898 205.901 98.5701 205.948C98.5505 205.995 98.5403 206.045 98.5403 206.095V207.388C98.5403 207.438 98.5505 207.489 98.5701 207.535C98.5898 207.582 98.6186 207.625 98.6549 207.661C98.6912 207.696 98.7343 207.725 98.7818 207.744C98.8292 207.764 98.8801 207.774 98.9315 207.774H129.519C129.57 207.774 129.621 207.764 129.668 207.744C129.716 207.725 129.759 207.696 129.795 207.661C129.832 207.625 129.86 207.582 129.88 207.535C129.9 207.489 129.91 207.438 129.91 207.388V206.095C129.91 206.045 129.9 205.995 129.88 205.948C129.86 205.901 129.832 205.858 129.795 205.823C129.759 205.787 129.716 205.758 129.668 205.739C129.621 205.719 129.57 205.709 129.519 205.709H128.864V187.132H178.136C178.531 187.132 178.923 187.055 179.288 186.906C179.653 186.757 179.985 186.538 180.265 186.262C180.544 185.986 180.766 185.658 180.917 185.298C181.069 184.937 181.146 184.551 181.146 184.161V174.747H47.3037Z" fill="#3F3D56"/>
<path id="Vector_63" d="M112.608 147.73C119.418 147.73 124.939 142.281 124.939 135.56C124.939 128.838 119.418 123.389 112.608 123.389C105.798 123.389 100.277 128.838 100.277 135.56C100.277 142.281 105.798 147.73 112.608 147.73Z" fill="#2AD881"/>
<path id="Vector_64" d="M144.025 67.2541H142.056C142.056 52.5592 127.321 42.9298 112.456 42.9221C110.294 42.9158 108.137 43.1229 106.017 43.5402C103.63 44.0106 101.152 44.5743 98.7184 45.309C89.1198 48.213 80.2184 53.8266 80.2184 67.2541C80.2163 69.8618 80.5525 72.4591 81.2188 74.9825L79.3125 75.4724C78.6054 72.7887 78.248 70.027 78.249 67.2541C78.249 55.5215 83.1291 47.4627 91.5578 42.6577C95.9889 40.1308 101.397 38.5019 107.592 37.7089C110.17 37.3703 112.777 37.2922 115.371 37.4756C132.465 38.6885 144.025 51.6262 144.025 67.2541Z" fill="#2AD881"/>
<path id="Vector_65" d="M147.306 68.331L146.53 62.6707C146.339 61.2413 145.641 59.9248 144.561 58.9542C143.867 58.3215 143.037 57.8527 142.133 57.5834C141.229 57.314 140.275 57.251 139.342 57.3992L138.109 57.5664C137.772 57.6102 137.447 57.7197 137.153 57.8886C136.859 58.0574 136.602 58.2822 136.396 58.5499C136.189 58.8168 136.037 59.1214 135.95 59.4464C135.863 59.7713 135.842 60.1101 135.888 60.4432L137.68 73.4819C137.754 74.0134 137.995 74.5084 138.37 74.897C138.745 75.2857 139.234 75.5481 139.768 75.6473C139.926 75.6786 140.087 75.6942 140.248 75.694C140.364 75.6939 140.48 75.6861 140.595 75.6706L141.973 75.4879C142.814 75.3778 143.623 75.0993 144.35 74.6694C145.077 74.2396 145.708 73.6675 146.203 72.9882C146.31 72.8405 146.412 72.6889 146.507 72.5334C147.245 71.2614 147.527 69.7807 147.306 68.331Z" fill="#2AD881"/>
<path id="Vector_66" d="M137.314 57.8036C136.952 57.977 136.638 58.2328 136.396 58.55C136.189 58.8168 136.037 59.1215 135.95 59.4464C135.863 59.7714 135.842 60.1101 135.888 60.4432L137.68 73.482C137.754 74.0134 137.995 74.5085 138.37 74.8971C138.745 75.2857 139.234 75.5482 139.768 75.6473L137.314 57.8036Z" fill="white"/>
<path id="Vector_67" d="M147.306 68.331L146.53 62.6707C146.338 61.2413 145.641 59.9248 144.561 58.9542L146.345 71.9269C146.372 72.1352 146.426 72.3391 146.506 72.5334C147.244 71.2613 147.526 69.7807 147.306 68.331Z" fill="#3F3D56"/>
<path id="Vector_68" d="M141.174 72.4093C141.713 72.3372 141.984 71.0714 141.779 69.5821C141.574 68.0928 140.972 66.944 140.433 67.0162C139.894 67.0883 139.623 68.3541 139.828 69.8434C140.032 71.3327 140.635 72.4815 141.174 72.4093Z" fill="#3F3D56"/>
<path id="Vector_69" d="M139.992 65.4118C140.531 65.3396 140.802 64.0738 140.597 62.5846C140.393 61.0953 139.79 59.9465 139.251 60.0186C138.712 60.0908 138.441 61.3566 138.646 62.8459C138.851 64.3351 139.453 65.4839 139.992 65.4118Z" fill="#3F3D56"/>
<path id="Vector_70" d="M147.476 68.133C148.015 68.0609 148.286 66.7951 148.081 65.3058C147.876 63.8165 147.273 62.6677 146.735 62.7399C146.196 62.8121 145.925 64.0778 146.129 65.5671C146.334 67.0564 146.937 68.2052 147.476 68.133Z" fill="#3F3D56"/>
<path id="Vector_71" d="M112.456 42.9221C110.294 42.9158 108.137 43.1229 106.017 43.5402C103.63 44.0106 101.152 44.5743 98.7181 45.309C94.9173 45.1263 92.1208 44.1544 91.5576 42.6577C95.9886 40.1308 101.396 38.5019 107.592 37.7089C110.17 37.3703 112.777 37.2922 115.371 37.4756C115.646 37.6345 115.883 37.849 116.068 38.1049C116.252 38.3609 116.38 38.6525 116.442 38.9607C116.627 40.3135 115.064 41.7519 112.456 42.9221Z" fill="#3F3D56"/>
<path id="Vector_72" d="M87.3122 80.7439L84.2794 68.2999C84.1713 67.851 83.9311 67.4436 83.5892 67.1289C83.2472 66.8142 82.8187 66.6062 82.3574 66.5311C82.227 66.5111 82.0954 66.5007 81.9635 66.5C81.7777 66.5007 81.5926 66.5228 81.4121 66.5661L80.2383 66.846C78.7271 67.2067 77.4226 68.1445 76.6111 69.4534C75.7996 70.7624 75.5474 72.3357 75.9097 73.828L77.2686 79.4105C77.5788 80.7248 78.3178 81.9021 79.3718 82.7616C79.5426 82.8977 79.7215 83.0236 79.9075 83.1387C80.5677 83.5471 81.3041 83.8208 82.0733 83.9436C82.8424 84.0665 83.6288 84.036 84.3858 83.854L85.5556 83.5741C85.8649 83.5028 86.1559 83.3691 86.4103 83.1814C86.7885 82.9092 87.0763 82.5321 87.2369 82.0981C87.3975 81.6641 87.4237 81.1927 87.3122 80.7439Z" fill="#2AD881"/>
<path id="Vector_73" d="M80.9535 78.4286C81.4822 78.303 81.622 77.0167 81.2658 75.5555C80.9095 74.0943 80.1921 73.0115 79.6634 73.1371C79.1347 73.2627 78.9949 74.549 79.3511 76.0102C79.7074 77.4715 80.4248 78.5542 80.9535 78.4286Z" fill="#3F3D56"/>
<path id="Vector_74" d="M77.015 79.5949C77.5438 79.4693 77.6836 78.1829 77.3273 76.7217C76.9711 75.2605 76.2536 74.1778 75.7249 74.3034C75.1962 74.429 75.0564 75.7153 75.4126 77.1765C75.7689 78.6377 76.4863 79.7205 77.015 79.5949Z" fill="#3F3D56"/>
<path id="Vector_75" d="M87.505 80.6973L84.4722 68.2533C84.3541 67.7676 84.0934 67.327 83.7227 66.9868C83.3521 66.6466 82.8881 66.4218 82.3887 66.3406L86.5282 83.3369C86.937 83.0414 87.248 82.633 87.4219 82.1632C87.5957 81.6934 87.6246 81.1833 87.505 80.6973Z" fill="white"/>
<path id="Vector_76" d="M76.5943 71.3633C76.5106 71.0173 76.3535 70.6926 76.1335 70.4109C75.7072 71.5006 75.6288 72.693 75.909 73.828L77.2678 79.4105C77.5781 80.7248 78.317 81.9021 79.3711 82.7616L76.5943 71.3633Z" fill="#3F3D56"/>
</g>
<defs>
<clipPath id="clip0_226_1940">
<rect width="335" height="288" fill="white"/>
</clipPath>
</defs>
</svg>
