<svg width="79" height="88" viewBox="0 0 79 88" fill="none" xmlns="http://www.w3.org/2000/svg">
<g clip-path="url(#clip0_140_709)">
<path d="M78.2803 25.8469C78.2796 24.369 77.9634 23.0627 77.3239 21.9416C76.6963 20.8392 75.7555 19.9152 74.4941 19.1846C64.0808 13.1801 53.6568 7.194 43.2468 1.18342C40.4403 -0.436943 37.7193 -0.37797 34.9332 1.26592C30.7884 3.71036 10.0366 15.5995 3.85243 19.1813C1.30593 20.6556 0.0665951 22.9118 0.0659839 25.8439C0.0620117 37.9198 0.0659839 49.995 0.0620117 62.0709C0.0620117 63.5161 0.365428 64.7973 0.976539 65.9016C1.60476 67.0374 2.5584 67.9867 3.84907 68.7338C10.0335 72.3155 30.7881 84.2041 34.932 86.6488C37.719 88.2933 40.4403 88.3523 43.2477 86.7313C53.658 80.7204 64.0823 74.7346 74.4975 68.7301C75.7881 67.9834 76.7418 67.0334 77.37 65.8986C77.9802 64.7943 78.2842 63.5134 78.2842 62.0672C78.2842 62.0672 78.2842 37.9228 78.2803 25.8469Z" fill="#649AD2"/>
<path d="M39.2927 43.8398L0.976074 65.9016C1.6046 67.0373 2.55824 67.9867 3.84891 68.7338C10.0334 72.3155 30.7879 84.204 34.9319 86.6488C37.7188 88.2933 40.4401 88.3523 43.2475 86.7313C53.6578 80.7204 64.0822 74.7346 74.4973 68.7301C75.788 67.9833 76.7416 67.0333 77.3699 65.8985L39.2927 43.8398Z" fill="#004482"/>
<path d="M27.9438 50.3748C30.1735 54.2669 34.3648 56.8923 39.173 56.8923C44.0109 56.8923 48.226 54.2339 50.4443 50.2996L39.2928 43.8398L27.9438 50.3748Z" fill="#1A4674"/>
<path d="M78.2801 25.847C78.2795 24.369 77.9632 23.0627 77.3237 21.9417L39.2927 43.8399L77.3698 65.8986C77.98 64.7943 78.2834 63.5134 78.2841 62.0672C78.2841 62.0672 78.2841 37.9228 78.2801 25.847Z" fill="#01589C"/>
<path d="M76.1865 45.4166H73.211V48.3927H70.2349V45.4166H67.2597V42.4417H70.2349V39.4662H73.211V42.4417H76.1865V45.4166ZM39.173 17.9811C48.6865 17.9811 57.0046 23.0961 61.5305 30.7255L61.6662 30.9574L50.3603 37.4679C48.1197 33.6151 43.9504 31.0225 39.173 31.0225C32.0291 31.0225 26.2379 36.8137 26.2379 43.9573C26.2356 46.2088 26.8238 48.4217 27.9439 50.3749C30.1735 54.267 34.3648 56.8924 39.173 56.8924C43.9577 56.8924 48.1334 54.2921 50.3707 50.4289L50.4444 50.2997L61.7337 56.8404C57.2573 64.6617 48.8307 69.9338 39.173 69.9338C29.5331 69.9338 21.1196 64.6828 16.6371 56.8844C14.4487 53.0775 13.1965 48.6637 13.1965 43.9573C13.1965 29.6114 24.8263 17.9811 39.173 17.9811ZM62.354 39.4659V42.4414H65.3292V45.4166H62.354V48.3927H59.3785V45.4166H56.403V42.4417H59.3785V39.4662L62.354 39.4659Z" fill="white"/>
</g>
<defs>
<clipPath id="clip0_140_709">
<rect width="78.2222" height="88" fill="white" transform="translate(0.0620117)"/>
</clipPath>
</defs>
</svg>
