<svg width="100" height="100" viewBox="0 0 100 100" fill="none" xmlns="http://www.w3.org/2000/svg">
<path d="M18.4436 85.0031L11.4248 6.25H88.5748L81.5467 84.9906L49.9529 93.75L18.4436 85.0031Z" fill="#1572B6"/>
<path d="M50 87.0562L75.5313 79.9781L81.5375 12.6906H50V87.0562Z" fill="#33A9DC"/>
<path d="M50 41.2219H62.7812L63.6625 31.3313H50V21.6719H74.2188L73.9875 24.2625L71.6156 50.8813H50V41.2219Z" fill="white"/>
<path d="M50.0594 66.3062L50.0156 66.3187L39.2594 63.4125L38.5719 55.7094H28.875L30.2281 70.875L50.0125 76.3687L50.0594 76.3562V66.3062Z" fill="#EBEBEB"/>
<path d="M61.9593 50.4719L60.7968 63.4062L50.0249 66.3125V76.3625L69.8249 70.875L69.9718 69.2437L71.6499 50.4719H61.9593Z" fill="white"/>
<path d="M50.0343 21.6719V31.3313H26.703L26.5093 29.1594L26.0687 24.2625L25.8374 21.6719H50.0343ZM49.9999 41.2219V50.8813H39.378L39.1843 48.7094L38.7468 43.8125L38.5155 41.2219H49.9999Z" fill="#EBEBEB"/>
</svg>
