<svg width="123" height="88" viewBox="0 0 123 88" fill="none" xmlns="http://www.w3.org/2000/svg">
<g clip-path="url(#clip0_140_702)">
<path d="M120.204 33.5337C117.461 31.631 111.177 30.9175 106.265 31.8688C105.694 27.1121 103.066 22.9504 98.4953 19.2639L95.8677 17.3612L94.0392 20.0963C91.7545 23.6639 90.6119 28.6585 90.9544 33.4153C91.0686 35.0797 91.6399 38.0526 93.3537 40.6688C91.7545 41.6202 88.4409 42.8094 84.0995 42.8094H1.49361L1.26529 43.7607C0.465201 48.517 0.465201 63.3814 9.83411 74.7971C16.9179 83.4778 27.4294 87.8777 41.2539 87.8777C71.1882 87.8777 93.3537 73.4886 103.751 47.4467C107.864 47.5657 116.662 47.4467 121.118 38.5278C121.232 38.29 121.46 37.8143 122.26 36.031L122.717 35.0797L120.204 33.5337ZM67.5321 0H54.9648V11.8914H67.5321V0ZM67.5321 14.2698H54.9648V26.1612H67.5321V14.2698ZM52.6792 14.2698H40.1118V26.1612H52.6792V14.2698ZM37.8262 14.2698H25.2584V26.1612H37.8262V14.2698ZM22.9732 28.5396H10.4054V40.431H22.9727L22.9732 28.5396ZM37.8262 28.5396H25.2584V40.431H37.8262V28.5396ZM52.6792 28.5396H40.1118V40.431H52.6792V28.5396ZM67.5326 28.5396H54.9643V40.431H67.5326V28.5396ZM82.3856 28.5396H69.8173V40.431H82.3856V28.5396Z" fill="#2396ED"/>
</g>
<defs>
<clipPath id="clip0_140_702">
<rect width="121.773" height="88" fill="white" transform="translate(0.943848)"/>
</clipPath>
</defs>
</svg>
