<svg width="79" height="88" viewBox="0 0 79 88" fill="none" xmlns="http://www.w3.org/2000/svg">
<g clip-path="url(#clip0_140_700)">
<path fill-rule="evenodd" clip-rule="evenodd" d="M47.3417 10.072L65.4141 20.5068C65.9358 19.9546 66.5346 19.4808 67.1918 19.1C70.9398 16.9452 75.7205 18.2246 77.8976 21.9728C80.0524 25.7211 78.773 30.5015 75.0247 32.6786C74.3724 33.0542 73.6695 33.3341 72.9375 33.5097V54.3867C73.6615 54.5626 74.3568 54.8406 75.0024 55.2124C78.773 57.3894 80.0524 62.1702 77.8753 65.9184C75.7205 69.6664 70.9175 70.9457 67.1692 68.7912C66.4432 68.3745 65.7891 67.8435 65.232 67.2186L47.2696 77.5891C47.5325 78.3857 47.6661 79.2192 47.6653 80.058C47.6653 84.3672 44.1642 87.8912 39.8324 87.8912C35.5005 87.8912 31.9995 84.3896 31.9995 80.058C31.9995 79.288 32.1101 78.5443 32.3163 77.8418L14.2488 67.4101C13.7329 67.9513 13.1425 68.4164 12.4955 68.7912C8.72499 70.9457 3.94427 69.6664 1.78949 65.9184C-0.36498 62.1702 0.914381 57.3894 4.66233 55.2124C5.30797 54.8405 6.00326 54.5624 6.72727 54.3864V33.5097C5.99528 33.3341 5.29234 33.0542 4.64002 32.6786C0.89177 30.5241 -0.387591 25.7211 1.76719 21.9728C3.92196 18.2246 8.72469 16.9452 12.4729 19.1C13.1266 19.4788 13.7224 19.9496 14.2421 20.4979L32.3197 10.0604C32.1066 9.33714 31.9987 8.58694 31.9995 7.83292C31.9995 3.50167 35.5005 0 39.8324 0C44.1642 0 47.6653 3.50136 47.6653 7.83292C47.6653 8.61147 47.5522 9.36283 47.3417 10.072ZM45.4589 13.2871L63.5744 23.7462C63.2859 24.7546 63.2032 25.8107 63.3311 26.8516C63.459 27.8926 63.795 28.8972 64.319 29.8057C65.4217 31.724 67.2181 32.9957 69.2119 33.4913V54.3944C69.11 54.4192 69.0089 54.4461 68.9084 54.4751L45.2484 13.4964C45.3199 13.4279 45.39 13.358 45.4589 13.2871ZM34.4213 13.5013L10.7615 54.4793C10.6592 54.4498 10.5563 54.4223 10.4529 54.3968V33.4916C12.4467 32.996 14.243 31.7243 15.3458 29.806C15.8708 28.8958 16.2071 27.8891 16.3345 26.846C16.4619 25.8029 16.3779 24.7448 16.0874 23.7349L34.1976 13.2788C34.2708 13.3544 34.3453 13.4288 34.4213 13.5013ZM42.0211 15.3572L65.6754 56.3261C65.1335 56.8432 64.6691 57.4356 64.2964 58.0852C63.9246 58.7309 63.6466 59.4261 63.4708 60.1501H16.1946C16.0186 59.4261 15.7404 58.7308 15.3684 58.0852C14.9945 57.44 14.5309 56.8511 13.9915 56.3362L37.6504 15.3591C38.3597 15.5634 39.0943 15.6666 39.8324 15.6658C40.5923 15.6658 41.3265 15.5583 42.0211 15.3572ZM45.6251 74.7811L63.6229 64.3897C63.569 64.2201 63.5208 64.0487 63.4784 63.8758H16.1845C16.1595 63.9774 16.1324 64.0785 16.1032 64.1789L34.1891 74.6212C34.9194 73.8618 35.7959 73.2581 36.7658 72.8463C37.7356 72.4345 38.7787 72.2232 39.8324 72.2251C40.9229 72.2231 42.0017 72.4495 42.9994 72.8897C43.9971 73.3299 44.8915 73.9742 45.6251 74.7811Z" fill="#E535AB"/>
</g>
<defs>
<clipPath id="clip0_140_700">
<rect width="78.2222" height="88" fill="white" transform="translate(0.72168)"/>
</clipPath>
</defs>
</svg>
