<svg width="100" height="100" viewBox="0 0 100 100" fill="none" xmlns="http://www.w3.org/2000/svg">
<path d="M18.4438 85.0031L11.4219 6.25H88.5781L81.5469 84.9906L49.9531 93.75L18.4438 85.0031Z" fill="#E44F26"/>
<path d="M50 87.0562L75.5313 79.9781L81.5375 12.6906H50V87.0562Z" fill="#F1662A"/>
<path d="M50 41.8969H37.2188L36.3375 32.0062H50V22.3469H25.7812L26.0125 24.9406L28.3844 51.5562H50V41.8969ZM50 66.9812L49.9562 66.9937L39.2 64.0906L38.5125 56.3875H28.8156L30.1688 71.55L49.9562 77.0437L50 77.0312V66.9812Z" fill="#EBEBEB"/>
<path d="M49.9658 41.8969V51.5562H61.8596L60.7408 64.0844L49.9658 66.9906V77.0406L69.7689 71.55L69.9127 69.9187L72.1814 44.4906L72.4189 41.8969H49.9658ZM49.9658 22.3469V32.0062H73.2971L73.4908 29.8375L73.9314 24.9406L74.1627 22.3469H49.9658Z" fill="white"/>
</svg>
