<svg width="88" height="88" viewBox="0 0 88 88" fill="none" xmlns="http://www.w3.org/2000/svg">
<g clip-path="url(#clip0_140_1545)">
<path d="M0 0H88V88H0V0Z" fill="#F7DF1E"/>
<path d="M23.1385 73.5391L29.8726 69.4636C31.172 71.7671 32.3538 73.7162 35.1887 73.7162C37.906 73.7162 39.6196 72.6533 39.6196 68.5187V40.4006H47.8892V68.6356C47.8892 77.2008 42.8684 81.0996 35.5431 81.0996C28.9276 81.0996 25.0876 77.6734 23.1382 73.5385M52.381 72.653L59.1144 68.7545C60.8871 71.6492 63.1909 73.7756 67.2664 73.7756C70.6933 73.7756 72.8781 72.0624 72.8781 69.6995C72.8781 66.8642 70.6334 65.8598 66.8529 64.2063L64.7859 63.3195C58.8194 60.7802 54.8618 57.5902 54.8618 50.8561C54.8618 44.6535 59.5874 39.9276 66.9715 39.9276C72.2288 39.9276 76.0093 41.7591 78.7263 46.5438L72.2872 50.6791C70.8692 48.1391 69.3341 47.135 66.9711 47.135C64.5491 47.135 63.0132 48.6709 63.0132 50.6791C63.0132 53.1599 64.5491 54.1647 68.0931 55.7006L70.1604 56.5864C77.1901 59.5994 81.1477 62.6708 81.1477 69.5816C81.1477 77.0251 75.2998 81.1006 67.4434 81.1006C59.7644 81.1006 54.8024 77.4383 52.3807 72.6533" fill="black"/>
</g>
<defs>
<clipPath id="clip0_140_1545">
<rect width="88" height="88" fill="white"/>
</clipPath>
</defs>
</svg>
