<svg width="88" height="88" viewBox="0 0 88 88" fill="none" xmlns="http://www.w3.org/2000/svg">
<path fill-rule="evenodd" clip-rule="evenodd" d="M60.5262 29.4332C61.6296 32.6253 62.4244 35.884 62.6856 39.2617C63.0101 43.452 62.8616 47.6128 61.9782 51.7344C61.9541 51.8478 61.9033 51.9544 61.8654 52.0644C61.5884 52.065 61.3058 52.0307 61.0349 52.0726C58.7463 52.4322 56.4596 52.8048 54.173 53.1754C51.8094 53.5583 49.4423 53.9261 47.0828 54.3352C46.2468 54.4795 45.2121 54.307 44.8746 55.4634C44.8649 55.495 44.7687 55.5005 44.713 55.5184L44.8271 48.6083L44.7109 31.935L45.8123 31.746C47.6136 31.451 49.4148 31.152 51.2174 30.8653C53.3686 30.5236 55.5219 30.1915 57.6744 29.8581C58.6239 29.7103 59.5747 29.5749 60.5262 29.4332Z" fill="#439934"/>
<path fill-rule="evenodd" clip-rule="evenodd" d="M42.4384 75.6622C41.2765 74.6632 40.0741 73.7083 38.9603 72.6578C32.9674 67.0052 28.5839 60.3522 26.4252 52.3312C25.8305 50.1236 25.4338 47.8803 25.3066 45.5992C25.2172 44.0028 25.088 42.392 25.2007 40.8038C25.5012 36.5798 26.1117 32.3964 27.3505 28.3278L27.4186 28.2329C27.5389 28.3931 27.7122 28.5347 27.7733 28.7155C28.9824 32.2768 30.1837 35.8406 31.3772 39.4068C35.1296 50.6131 38.8772 61.8221 42.6357 73.0256C42.7093 73.2442 42.8997 73.4237 43.0365 73.621L42.4384 75.6622Z" fill="#45A538"/>
<path fill-rule="evenodd" clip-rule="evenodd" d="M60.5259 29.4332C59.5744 29.5749 58.6229 29.7103 57.6735 29.8567C55.5209 30.1902 53.3677 30.5222 51.2165 30.8639C49.4139 31.1506 47.6126 31.4497 45.8114 31.7446L44.71 31.9337L44.7018 31.2152C44.6653 30.6247 44.6028 30.0348 44.5959 29.4442C44.5484 25.6781 44.5189 21.912 44.4721 18.1459C44.4433 15.7884 44.3999 13.4317 44.3518 11.0749C44.3223 9.61055 44.2906 8.14549 44.2246 6.68317C44.1889 5.89736 44.0624 5.11567 44.0108 4.32986C43.9819 3.87817 44.0218 3.42305 44.0308 2.9693C44.5924 4.05761 45.1418 5.15417 45.7193 6.23424C46.6316 7.94199 48.0849 9.20011 49.3933 10.573C54.5653 15.9988 58.2373 22.3073 60.5259 29.4332Z" fill="#46A037"/>
<path fill-rule="evenodd" clip-rule="evenodd" d="M44.7122 55.5177C44.7679 55.4998 44.8649 55.4943 44.8738 55.4627C45.2114 54.3063 46.2461 54.4789 47.0821 54.3345C49.4416 53.9261 51.8086 53.5576 54.1722 53.1747C56.4589 52.8041 58.7455 52.4315 61.0342 52.0719C61.305 52.0293 61.5876 52.0644 61.8647 52.0637C61.437 53.5899 61.1002 55.1492 60.5577 56.6335C59.9417 58.3172 59.1965 59.9603 58.4052 61.5711C57.2213 63.9742 55.7551 66.2275 54.0375 68.2832C52.7182 69.8699 51.2476 71.3364 49.7736 72.7849C48.9589 73.5859 47.9985 74.2383 47.1047 74.9581L46.8731 74.8L46.0384 74.0864L45.1749 72.1937C44.5851 69.9858 44.2633 67.7149 44.2166 65.4301L44.2324 65.0444L44.3499 63.3765C44.3891 62.8073 44.4414 62.2387 44.4654 61.6681C44.5541 59.6179 44.6311 57.5678 44.7122 55.5177Z" fill="#409433"/>
<path fill-rule="evenodd" clip-rule="evenodd" d="M44.7121 55.5177C44.631 57.5678 44.554 59.6179 44.4667 61.6687C44.4426 62.2394 44.3903 62.8079 44.3512 63.3772L43.8252 63.5759C42.6571 60.137 41.4884 56.7346 40.3451 53.3232C38.4545 47.6795 36.5865 42.0269 34.6987 36.3818C33.1738 31.8254 31.6384 27.2725 30.0924 22.7232C30.0202 22.5101 29.8126 22.3437 29.6682 22.1554L33.0342 15.9665C33.1497 16.1672 33.3023 16.3549 33.3752 16.5708C34.9341 21.1785 36.4851 25.7889 38.0282 30.4019C40.033 36.4038 42.0253 42.4105 44.0287 48.4131C44.1085 48.653 44.2405 48.8744 44.3663 49.1432L44.8269 48.6069L44.7121 55.5177Z" fill="#4FAA41"/>
<path fill-rule="evenodd" clip-rule="evenodd" d="M29.6692 22.1561C29.8136 22.3444 30.0205 22.5108 30.0934 22.7239C31.6394 27.2732 33.1748 31.8261 34.6996 36.3825C36.5875 42.0276 38.4554 47.6802 40.3461 53.3239C41.4887 56.7346 42.6574 60.1377 43.8262 63.5766L44.3521 63.3779L44.2346 65.0458L44.128 65.4301C43.9451 67.2561 43.7911 69.0862 43.5684 70.9081C43.4563 71.8211 43.2184 72.7176 43.0376 73.6216C42.9015 73.4243 42.7104 73.2449 42.6368 73.0263C38.8782 61.8221 35.1307 50.6138 31.3783 39.4075C30.1845 35.8412 28.9832 32.2774 27.7744 28.7162C27.7132 28.5354 27.5407 28.3938 27.4197 28.2336L29.6692 22.1561Z" fill="#4AA73C"/>
<path fill-rule="evenodd" clip-rule="evenodd" d="M44.8264 48.6076L44.3658 49.1439C44.2399 48.8751 44.1079 48.653 44.0282 48.4138C42.0255 42.4112 40.0324 36.4045 38.0277 30.4026C36.4846 25.7896 34.9336 21.1792 33.3747 16.5715C33.3025 16.3556 33.1499 16.1673 33.0337 15.9672L37.1965 10.4913C37.3278 10.6666 37.5148 10.8226 37.5829 11.02C38.7379 14.4034 39.8844 17.79 41.0224 21.1798C42.086 24.3451 43.1338 27.5151 44.2097 30.6763C44.2819 30.888 44.5328 31.0379 44.7006 31.2166L44.7088 31.9351C44.7487 37.4919 44.7879 43.0494 44.8264 48.6076Z" fill="#57AE47"/>
<path fill-rule="evenodd" clip-rule="evenodd" d="M44.7018 31.2152C44.5341 31.0365 44.2831 30.8866 44.2109 30.6749C43.135 27.5137 42.0873 24.3437 41.0237 21.1784C39.8857 17.7891 38.7391 14.4024 37.5841 11.0186C37.5161 10.8212 37.3291 10.6652 37.1978 10.4899C38.5514 9.16436 39.8632 7.79143 41.2712 6.52711C42.5231 5.40374 43.5296 4.19924 43.5757 2.42411C43.5778 2.35055 43.6163 2.27699 43.6754 2.07074L44.0322 2.96861C44.0233 3.42305 43.9827 3.87749 44.0123 4.32918C44.0638 5.11499 44.1903 5.89668 44.2261 6.68249C44.2921 8.1448 44.3237 9.60986 44.3533 11.0742C44.4007 13.431 44.444 15.7877 44.4736 18.1452C44.5196 21.9113 44.5499 25.6774 44.5973 29.4436C44.6028 30.0355 44.6647 30.6247 44.7018 31.2152Z" fill="#60B24F"/>
<path fill-rule="evenodd" clip-rule="evenodd" d="M43.0361 73.6209C43.2169 72.7169 43.4548 71.8197 43.5669 70.9074C43.7903 69.0862 43.9436 67.2554 44.1265 65.4294L44.1719 65.4225L44.2172 65.43C44.264 67.7149 44.5858 69.9858 45.1756 72.1937C45.0546 72.3532 44.8834 72.4955 44.8195 72.6756C44.3197 74.085 43.8487 75.5054 43.3462 76.9147C43.2774 77.1072 43.0863 77.2571 42.9515 77.4262L42.438 75.6621L43.0361 73.6209Z" fill="#A9AA88"/>
<path fill-rule="evenodd" clip-rule="evenodd" d="M42.9521 77.427C43.0869 77.2578 43.2787 77.108 43.3468 76.9155C43.8493 75.5061 44.321 74.0864 44.8201 72.6763C44.884 72.4962 45.0545 72.3539 45.1762 72.1944L46.039 74.0878C45.8685 74.3298 45.6334 74.5477 45.5385 74.8172L43.8858 79.6703C43.8177 79.8648 43.5853 80.0023 43.43 80.1666L42.9521 77.427Z" fill="#B6B598"/>
<path fill-rule="evenodd" clip-rule="evenodd" d="M43.4299 80.166C43.586 80.0023 43.8177 79.8642 43.8857 79.6696L45.5385 74.8165C45.6327 74.5477 45.8685 74.3291 46.039 74.0871L46.8743 74.8C46.4707 75.1988 46.2466 75.6594 46.3814 76.2417L46.1277 77.0722C46.0122 77.2145 45.8451 77.3383 45.7881 77.5012C45.2112 79.1533 44.6606 80.8143 44.0796 82.4663C44.0061 82.676 43.8019 82.8403 43.6575 83.0246C43.5823 82.0717 43.5065 81.1188 43.4299 80.166Z" fill="#C2C1A7"/>
<path fill-rule="evenodd" clip-rule="evenodd" d="M43.6582 83.0246C43.8018 82.8396 44.006 82.6753 44.0803 82.4663C44.6612 80.8149 45.2119 79.1539 45.7887 77.5012C45.8458 77.3389 46.0122 77.2145 46.1283 77.0722L45.7784 80.8844C45.6849 80.9923 45.5495 81.0865 45.5048 81.2123C45.1095 82.322 44.7368 83.4398 44.3402 84.5495C44.2583 84.7784 44.1016 84.9805 43.9792 85.1943C43.8706 85.052 43.676 84.9145 43.6671 84.766C43.632 84.1878 43.6561 83.6055 43.6582 83.0246Z" fill="#CECDB7"/>
<path fill-rule="evenodd" clip-rule="evenodd" d="M43.9788 85.1943C44.1011 84.9798 44.2579 84.7777 44.3397 84.5495C44.7371 83.4405 45.109 82.3226 45.5043 81.2123C45.549 81.0865 45.6851 80.993 45.7779 80.8844L45.7862 83.3869L44.9488 85.5346L43.9788 85.1943Z" fill="#DBDAC7"/>
<path fill-rule="evenodd" clip-rule="evenodd" d="M44.9487 85.5353L45.7861 83.3876L45.9587 85.9286L44.9487 85.5353Z" fill="#EBE9DC"/>
<path fill-rule="evenodd" clip-rule="evenodd" d="M46.3813 76.2424C46.2466 75.6601 46.47 75.1988 46.8743 74.8007L47.106 74.9588L46.3813 76.2424Z" fill="#CECDB7"/>
<path fill-rule="evenodd" clip-rule="evenodd" d="M44.2172 65.4308L44.1718 65.4232L44.1265 65.4301L44.233 65.0458L44.2172 65.4308Z" fill="#4FAA41"/>
</svg>
