<svg width="88" height="88" viewBox="0 0 88 88" fill="none" xmlns="http://www.w3.org/2000/svg">
<g clip-path="url(#clip0_140_724)">
<path d="M81.3539 67.5414C76.56 67.4101 72.8997 67.8583 69.7682 69.1769C68.8792 69.553 67.4616 69.5613 67.3165 70.6757C67.8054 71.1886 67.8803 71.9538 68.2701 72.5849C69.0167 73.7908 70.279 75.4126 71.4044 76.2644C72.6344 77.1911 73.9021 78.1846 75.2207 78.9876C77.5679 80.4189 80.1866 81.2357 82.4422 82.6671C83.7746 83.5127 85.0953 84.5763 86.3954 85.5298C87.0375 86.0001 87.4699 86.7329 88.3018 87.0286V86.8945C87.8639 86.3363 87.7511 85.5676 87.3482 84.9853L85.5759 83.213C83.8434 80.9139 81.6441 78.8948 79.3079 77.2186C77.4441 75.8787 73.271 74.0713 72.4948 71.9043L72.358 71.7674C73.6794 71.6169 75.2262 71.1391 76.4479 70.8111C78.4967 70.2632 80.3289 70.4055 82.4422 69.8576L85.305 69.0415V68.4963C84.2359 67.4004 83.4735 65.9478 82.3082 64.9543C79.255 62.3549 75.9247 59.7603 72.4955 57.596C70.5939 56.3956 68.244 55.614 66.2275 54.5965C65.5483 54.2555 64.3582 54.0753 63.91 53.5061C62.8519 52.1579 62.2744 50.4474 61.4584 48.8737C59.7479 45.5785 58.069 41.9829 56.5517 38.5158C55.5177 36.1529 54.8439 33.8216 53.5549 31.7027C47.3674 21.5298 40.7075 15.3883 30.3895 9.35345C28.193 8.06989 25.5502 7.56251 22.7569 6.89908L18.2586 6.62751C17.3429 6.24595 16.392 5.12601 15.5327 4.58083C12.1151 2.42001 3.34673 -2.27699 0.813984 3.89951C-0.783766 7.79626 3.20442 11.5988 4.6303 13.5754C5.63198 14.9586 6.9128 16.5131 7.62711 18.071C8.10011 19.0967 8.18055 20.1224 8.58342 21.2053C9.57205 23.8748 10.4362 26.7802 11.7177 29.2456C12.3647 30.4941 13.079 31.8079 13.8985 32.9251C14.3983 33.6098 15.2597 33.9137 15.3972 34.969C14.5537 36.1481 14.5055 37.9768 14.0332 39.4673C11.9034 46.1842 12.7091 54.5304 15.8056 59.499C16.7564 61.0273 18.9963 64.2978 22.0735 63.0438C24.7672 61.9451 24.1656 58.5482 24.9363 55.5486C25.1109 54.8694 25.0037 54.3696 25.3447 53.9131V54.0499L27.799 58.9538C29.6147 61.8784 32.8343 64.9344 35.5657 66.9969C36.9813 68.0659 38.0957 69.9133 39.9272 70.5389V70.4021H39.7904C39.4357 69.8486 38.8802 69.6204 38.4292 69.1776C37.3629 68.1306 36.1762 66.8305 35.2949 65.6329C32.8109 62.2628 30.6164 58.5723 28.6185 54.7326C27.6622 52.8983 26.8324 50.8764 26.0267 49.0098C25.7152 48.29 25.7207 47.1996 25.0731 46.8291C24.1924 48.1958 22.8924 49.3027 22.2104 50.9163C21.1227 53.4971 20.9804 56.6473 20.5775 59.9101C20.3383 59.9961 20.4435 59.937 20.3039 60.047C18.405 59.5877 17.7395 57.6352 17.0328 55.957C15.2494 51.7193 14.9167 44.8951 16.4876 40.0132C16.8932 38.7509 18.7302 34.7765 17.9864 33.6084C17.6316 32.4459 16.4608 31.7714 15.8056 30.8825C14.9944 29.7839 14.1865 28.3367 13.6249 27.0662C12.1639 23.7628 11.4847 20.0516 9.94536 16.7111C9.20973 15.1133 7.9688 13.4963 6.94855 12.0787C5.81761 10.505 4.5533 9.34451 3.67742 7.44357C3.36598 6.76708 2.94455 5.68426 3.4038 4.99195C3.55161 4.5217 3.75855 4.32576 4.22261 4.17314C5.01186 3.56333 7.21461 4.37733 8.03617 4.71833C10.2224 5.62583 12.0457 6.4907 13.8985 7.71789C14.7847 8.3057 15.6846 9.44489 16.7585 9.76183H17.9857C19.9031 10.2025 22.0515 9.89589 23.8452 10.4411C27.0139 11.405 29.8526 12.9037 32.4307 14.531C40.2834 19.4913 46.7074 26.5485 51.1005 34.9731C51.8065 36.3296 52.1132 37.6214 52.736 39.0603C53.99 41.9609 55.572 44.9446 56.8205 47.7833C58.069 50.611 59.2831 53.4689 61.0472 55.8236C61.974 57.0618 65.551 57.7253 67.1784 58.4128C68.3196 58.8933 70.1889 59.3959 71.2683 60.0483C73.3308 61.292 75.3287 62.7743 77.2654 64.1355C78.2292 64.8175 81.2047 66.3135 81.3525 67.5434L81.3539 67.5414ZM20.438 15.6214C19.439 15.6028 18.733 15.7286 17.9864 15.893V16.0298H18.1204C18.5982 17.0074 19.439 17.6385 20.0296 18.4814L21.3909 21.3441L21.5277 21.2101C22.3712 20.614 22.7576 19.6632 22.7521 18.2105C22.4139 17.853 22.3657 17.4103 22.0701 16.9833C21.6837 16.4168 20.9289 16.0971 20.4373 15.6221L20.438 15.6214Z" fill="#08B0F8"/>
</g>
<defs>
<clipPath id="clip0_140_724">
<rect width="88" height="88" fill="white" transform="translate(0.443604)"/>
</clipPath>
</defs>
</svg>
