<svg width="88" height="88" viewBox="0 0 88 88" fill="none" xmlns="http://www.w3.org/2000/svg">
<g clip-path="url(#clip0_140_1551)">
<path d="M78.5901 37.9871C78.5546 37.9871 78.5199 37.9976 78.4904 38.0174L76.8775 38.9592C76.8472 38.978 76.8222 39.0044 76.8051 39.0357C76.788 39.0671 76.7793 39.1023 76.7799 39.138V41.0217C76.7799 41.1015 76.8177 41.162 76.8775 41.2019L78.4904 42.1424C78.5199 42.1622 78.5546 42.1727 78.5901 42.1727C78.6256 42.1727 78.6603 42.1622 78.6898 42.1424L80.2999 41.2019C80.3305 41.1826 80.3557 41.156 80.3731 41.1243C80.3906 41.0927 80.3997 41.0572 80.3996 41.0211V39.1394C80.4 39.1035 80.391 39.0681 80.3735 39.0368C80.356 39.0054 80.3307 38.9792 80.2999 38.9606L78.6891 38.0181C78.6598 37.9984 78.6254 37.9872 78.5901 37.9871ZM43.4637 49.2511C43.1701 49.2511 42.8779 49.3226 42.6291 49.4629L34.6891 54.0877C34.4347 54.2371 34.2238 54.4505 34.0774 54.7067C33.931 54.9629 33.8541 55.2529 33.8545 55.5479V64.7762C33.8545 65.3771 34.1721 65.9381 34.6891 66.2392L36.7791 67.4396C37.7939 67.9401 38.1521 67.9387 38.6092 67.9387C40.1011 67.9387 40.9571 67.0182 40.9571 65.4362V56.3303C40.9562 56.2669 40.9308 56.2064 40.8861 56.1614C40.8415 56.1164 40.7812 56.0904 40.7178 56.089H39.7044C39.6408 56.0901 39.5801 56.1158 39.5352 56.1609C39.4903 56.2059 39.4647 56.2667 39.4638 56.3303V65.4383C39.4638 66.1389 38.7289 66.8408 37.5553 66.2406L35.3862 64.9791C35.3065 64.9392 35.2659 64.8374 35.2659 64.7577V55.5273C35.2659 55.4476 35.3065 55.3486 35.3862 55.308L43.3234 50.7038C43.3832 50.6639 43.4836 50.6639 43.5634 50.7038L51.5026 55.308C51.5817 55.3486 51.6209 55.4276 51.6209 55.528V64.757C51.6209 64.8567 51.5817 64.9385 51.5026 64.9784L43.5634 69.6032C43.5036 69.6431 43.4032 69.6431 43.3234 69.6032L41.2946 68.3801C41.2348 68.3402 41.1551 68.3203 41.0952 68.3602C40.5384 68.6806 40.4407 68.7225 39.9031 68.9026C39.7835 68.9425 39.5848 69.0216 39.9822 69.2416L42.6291 70.8242C42.8876 70.9637 43.1653 71.0435 43.4637 71.0435C43.7621 71.0435 44.0597 70.9644 44.2983 70.8647L52.2382 66.2399C52.4931 66.0903 52.7042 65.8764 52.8506 65.6197C52.9971 65.363 53.0737 65.0725 53.0729 64.7769V55.5479C53.0729 54.9471 52.7552 54.3881 52.2382 54.0877L44.2983 49.4629C44.0426 49.3226 43.7553 49.2497 43.4637 49.2511ZM55.8593 53.4655C55.4518 53.4671 55.0617 53.6305 54.7746 53.9196C54.4875 54.2088 54.327 54.6001 54.3282 55.0076C54.3271 55.4149 54.4878 55.806 54.7748 56.095C55.0619 56.384 55.452 56.5473 55.8593 56.5489C56.696 56.5489 57.3911 55.8484 57.3911 55.0076C57.3889 54.6011 57.2271 54.2117 56.9406 53.9234C56.6541 53.6351 56.2658 53.4702 55.8593 53.4655ZM55.8387 53.7261C56.0082 53.724 56.1764 53.7556 56.3335 53.8191C56.4907 53.8826 56.6336 53.9767 56.7541 54.0959C56.8746 54.2152 56.9701 54.3572 57.0352 54.5137C57.1003 54.6702 57.1336 54.8381 57.1332 55.0076C57.1332 55.7088 56.5557 56.3097 55.8394 56.3097C55.1436 56.3097 54.5661 55.7281 54.5661 55.0076C54.5661 54.2871 55.1629 53.7261 55.8387 53.7261ZM55.2825 54.1461V55.9075H55.6221V55.209H55.9205C56.0401 55.209 56.0793 55.2489 56.0992 55.3486C56.0992 55.3692 56.1584 55.8092 56.1584 55.8889H56.5159C56.476 55.8092 56.4561 55.5686 56.4361 55.4283C56.4169 55.2083 56.3976 55.0481 56.1584 55.0282C56.278 54.9876 56.4767 54.9278 56.4767 54.6074C56.4767 54.1468 56.0779 54.1468 55.8799 54.1468L55.2825 54.1461ZM55.5816 54.4266H55.8593C55.9597 54.4266 56.1178 54.4266 56.1178 54.6666C56.1178 54.7463 56.0793 54.9079 55.8593 54.9079H55.5809L55.5816 54.4266ZM45.6334 55.8085C43.3647 55.8085 42.0117 56.7696 42.0117 58.3914C42.0117 60.1336 43.3647 60.6121 45.5337 60.8327C48.1394 61.0933 48.3387 61.4742 48.3387 61.9946C48.3387 62.8952 47.621 63.2761 45.9497 63.2761C43.8404 63.2761 43.3832 62.755 43.2237 61.6942C43.2237 61.5739 43.1261 61.4948 43.0065 61.4948H41.9718C41.9086 61.4955 41.8482 61.5211 41.8037 61.566C41.7592 61.6109 41.7341 61.6715 41.7339 61.7347C41.7339 63.096 42.4496 64.6979 45.9325 64.6979C48.4384 64.6979 49.8911 63.6955 49.8911 61.9341C49.8911 60.2119 48.7361 59.752 46.29 59.4316C43.8219 59.1112 43.5641 58.9311 43.5641 58.3509C43.5641 57.8703 43.7827 57.2302 45.6128 57.2302C47.2442 57.2302 47.8602 57.5912 48.0995 58.6919C48.1115 58.7415 48.1394 58.7859 48.179 58.8182C48.2186 58.8505 48.2677 58.8689 48.3188 58.8706H49.3727C49.4332 58.8706 49.4931 58.8314 49.5336 58.7916C49.5697 58.738 49.59 58.6753 49.5921 58.6107C49.4332 56.6892 48.1806 55.8085 45.6334 55.8085Z" fill="#5FA04E"/>
<path d="M59.1745 16.9565C59.0899 16.9552 59.0064 16.9763 58.9325 17.0177C58.8558 17.0627 58.7918 17.1267 58.7466 17.2035C58.7015 17.2802 58.6768 17.3673 58.6747 17.4563V30.47C58.6747 30.5896 58.6129 30.7106 58.4939 30.7903C58.4389 30.8198 58.3775 30.8353 58.3152 30.8353C58.2528 30.8353 58.1914 30.8198 58.1364 30.7903L56.0285 29.57C55.8738 29.4817 55.6987 29.4352 55.5205 29.4352C55.3423 29.4352 55.1672 29.4817 55.0124 29.57L46.5782 34.4753C46.4221 34.5634 46.292 34.691 46.2011 34.8454C46.1102 34.9998 46.0617 35.1755 46.0605 35.3547V45.1447C46.0605 45.5049 46.2599 45.8459 46.5782 46.026L55.0138 50.9313C55.1684 51.0196 55.3434 51.066 55.5215 51.066C55.6996 51.066 55.8746 51.0196 56.0292 50.9313L64.4642 46.026C64.7825 45.8459 64.9818 45.5049 64.9818 45.1447V20.7405C64.9818 20.3603 64.7825 20.0186 64.4642 19.8392L59.4317 17.0177C59.352 16.9778 59.2636 16.9568 59.1745 16.9565ZM9.40985 29.1706C9.25104 29.1706 9.09223 29.2283 8.95335 29.3081L0.517727 34.1955C0.359186 34.2858 0.227612 34.4167 0.136602 34.5748C0.0455919 34.7329 -0.001553 34.9124 3.90247e-05 35.0948L0.020664 48.2274C0.020664 48.4082 0.118977 48.5883 0.278477 48.6688C0.352418 48.7173 0.438921 48.7431 0.527352 48.7431C0.615782 48.7431 0.702285 48.7173 0.776227 48.6688L5.79085 45.7861C6.10917 45.606 6.30648 45.265 6.30648 44.9047V38.7585C6.30648 38.3982 6.50585 38.0572 6.82485 37.8771L8.95335 36.6362C9.11216 36.5358 9.29229 36.4959 9.47104 36.4959C9.64979 36.4959 9.82923 36.5358 9.96879 36.6362L12.0973 37.8771C12.4156 38.0572 12.615 38.3982 12.615 38.7585V44.9047C12.615 45.265 12.813 45.606 13.1306 45.7861L18.1054 48.6688C18.1827 48.7181 18.2725 48.7443 18.3642 48.7443C18.4559 48.7443 18.5457 48.7181 18.623 48.6688C18.7022 48.6257 18.7682 48.5619 18.8137 48.4841C18.8593 48.4063 18.8827 48.3175 18.8815 48.2274V35.0948C18.8815 34.7345 18.6822 34.3935 18.3632 34.2127L9.94816 29.3081C9.8064 29.2329 9.65135 29.1859 9.49166 29.1699L9.40985 29.1706ZM78.6184 29.315C78.4445 29.315 78.2719 29.3603 78.1124 29.4511L69.6754 34.3537C69.3571 34.5338 69.1598 34.8748 69.1598 35.2357V45.0257C69.1598 45.386 69.3571 45.727 69.6754 45.9071L78.0519 50.7107C78.2028 50.7991 78.3745 50.8458 78.5493 50.8458C78.7242 50.8458 78.8959 50.7991 79.0467 50.7107L84.1205 47.8692C84.1995 47.8261 84.2653 47.7622 84.3108 47.6844C84.3562 47.6066 84.3795 47.5179 84.3783 47.4278C84.3793 47.338 84.3558 47.2496 84.3104 47.1721C84.265 47.0946 84.1993 47.0309 84.1205 46.9878L75.6457 42.0818C75.5686 42.0366 75.5044 41.9723 75.4593 41.8951C75.4141 41.818 75.3895 41.7305 75.3879 41.6412V38.5777C75.3869 38.4878 75.4103 38.3994 75.4557 38.3219C75.5012 38.2444 75.5668 38.1807 75.6457 38.1377L78.2925 36.6155C78.3699 36.5662 78.4597 36.54 78.5514 36.54C78.6431 36.54 78.7329 36.5662 78.8102 36.6155L81.4544 38.137C81.5318 38.182 81.5964 38.2462 81.6419 38.3233C81.6874 38.4005 81.7123 38.4881 81.7142 38.5777V40.9805C81.7142 41.1613 81.8132 41.3414 81.972 41.4212C82.0494 41.4706 82.1394 41.4969 82.2312 41.4969C82.3231 41.4969 82.413 41.4706 82.4904 41.4212L87.503 38.4787C87.6567 38.389 87.7838 38.26 87.8713 38.105C87.9587 37.95 88.0034 37.7746 88.0007 37.5966V35.2144C88.0007 34.8542 87.8014 34.5152 87.503 34.3344L79.1265 29.4504C78.9719 29.362 78.7971 29.3151 78.6191 29.3143L78.6184 29.315ZM55.5205 36.6258C55.5652 36.6258 55.6105 36.6362 55.6511 36.6568L58.5345 38.3384C58.6142 38.3783 58.6548 38.4773 58.6548 38.5577V41.921C58.6548 42.0213 58.6142 42.1025 58.5345 42.1423L55.6504 43.824C55.61 43.8438 55.5655 43.8541 55.5205 43.8541C55.4754 43.8541 55.431 43.8438 55.3905 43.824L52.5065 42.1423C52.4267 42.1025 52.3862 42.0014 52.3862 41.921V38.5577C52.3862 38.4573 52.4274 38.3783 52.5065 38.3377L55.3905 36.6568C55.4309 36.6358 55.4751 36.6252 55.5205 36.6258Z" fill="white"/>
<path d="M32.9877 29.4889C32.8334 29.4001 32.6584 29.3534 32.4804 29.3534C32.3023 29.3534 32.1273 29.4001 31.973 29.4889L23.5965 34.3544C23.443 34.4439 23.316 34.5727 23.2285 34.7274C23.1411 34.8821 23.0963 35.0573 23.0987 35.235V44.9845C23.0987 45.3454 23.2981 45.6857 23.5965 45.8659L31.973 50.7306C32.1273 50.8194 32.3023 50.8661 32.4804 50.8661C32.6584 50.8661 32.8334 50.8194 32.9877 50.7306L41.3635 45.8659C41.6819 45.6857 41.8613 45.3454 41.8613 44.9845V35.235C41.8613 34.8748 41.6619 34.5338 41.3635 34.3544L32.9877 29.4889Z" fill="url(#paint0_linear_140_1551)"/>
<path d="M41.3834 34.3544L32.9677 29.489C32.8851 29.4471 32.7985 29.4137 32.7092 29.3893L23.2781 45.6253C23.3578 45.7257 23.4568 45.8054 23.5565 45.8659L31.9729 50.7307C32.2115 50.8709 32.4899 50.9108 32.7484 50.8303L41.6027 34.5345C41.5445 34.4583 41.4695 34.3966 41.3834 34.3544Z" fill="url(#paint1_linear_140_1551)"/>
<path d="M41.3834 45.8652C41.6227 45.725 41.8014 45.485 41.8812 45.2245L32.6687 29.3686C32.4308 29.3288 32.1716 29.3487 31.953 29.489L23.5964 34.3338L32.6096 50.8702C32.7285 50.8503 32.8681 50.8104 32.9877 50.7499L41.3834 45.8652Z" fill="url(#paint2_linear_140_1551)"/>
</g>
<defs>
<linearGradient id="paint0_linear_140_1551" x1="35.8913" y1="33.1118" x2="28.2416" y2="48.6204" gradientUnits="userSpaceOnUse">
<stop stop-color="#3F873F"/>
<stop offset="0.33" stop-color="#3F8B3D"/>
<stop offset="0.637" stop-color="#3E9638"/>
<stop offset="0.934" stop-color="#3DA92E"/>
<stop offset="1" stop-color="#3DAE2B"/>
</linearGradient>
<linearGradient id="paint1_linear_140_1551" x1="31.2074" y1="41.2483" x2="52.551" y2="25.5755" gradientUnits="userSpaceOnUse">
<stop offset="0.138" stop-color="#3F873F"/>
<stop offset="0.402" stop-color="#52A044"/>
<stop offset="0.713" stop-color="#64B749"/>
<stop offset="0.908" stop-color="#6ABF4B"/>
</linearGradient>
<linearGradient id="paint2_linear_140_1551" x1="22.7923" y1="40.1065" x2="42.1745" y2="40.1065" gradientUnits="userSpaceOnUse">
<stop offset="0.092" stop-color="#6ABF4B"/>
<stop offset="0.287" stop-color="#64B749"/>
<stop offset="0.598" stop-color="#52A044"/>
<stop offset="0.862" stop-color="#3F873F"/>
</linearGradient>
<clipPath id="clip0_140_1551">
<rect width="88" height="88" fill="white"/>
</clipPath>
</defs>
</svg>
