<svg width="86" height="88" viewBox="0 0 86 88" fill="none" xmlns="http://www.w3.org/2000/svg">
<g clip-path="url(#clip0_140_1578)">
<path d="M85.3362 52.6954C84.8245 51.1457 83.4842 50.0664 81.7509 49.8074C80.9335 49.6854 79.9975 49.7374 78.8899 49.9657C76.9592 50.364 75.5269 50.5157 74.4815 50.545C78.4272 43.8834 81.6355 36.2867 83.4825 29.1357C86.4692 17.5727 84.8732 12.305 83.0082 9.92237C78.0725 3.6157 70.8715 0.227698 62.1842 0.124031C57.5499 0.0673642 53.4815 0.982364 51.3592 1.64036C49.3832 1.2917 47.2585 1.09703 45.0292 1.06103C40.8502 0.994364 37.1579 1.90536 34.0029 3.7777C32.2562 3.18703 29.4529 2.35436 26.2155 1.82303C18.6015 0.573031 12.4649 1.54703 7.9762 4.71803C2.54087 8.55736 0.0212002 15.228 0.4872 24.5447C0.6352 27.5027 2.28987 36.5027 4.8952 45.038C6.39253 49.944 7.9892 54.018 9.64087 57.148C11.9832 61.5864 14.4895 64.2 17.3032 65.1387C18.8802 65.664 21.7455 66.032 24.7592 63.522C25.1412 63.9847 25.6509 64.4444 26.3272 64.8714C27.1862 65.413 28.2365 65.8557 29.2855 66.118C33.0659 67.063 36.6069 66.8267 39.6279 65.502C39.6465 66.0394 39.6609 66.5527 39.6729 66.996C39.6929 67.715 39.7129 68.42 39.7392 69.0794C39.9182 73.5374 40.2215 77.0037 41.1202 79.429C41.1695 79.5624 41.2359 79.7657 41.3059 79.9814C41.7542 81.354 42.5039 83.652 44.4112 85.4517C46.3862 87.316 48.7752 87.8877 50.9632 87.8877C52.0605 87.8877 53.1075 87.7437 54.0259 87.547C57.2992 86.8454 61.0169 85.7767 63.7062 81.9474C66.2489 78.3274 67.4849 72.875 67.7085 64.284C67.7374 64.0409 67.7645 63.8089 67.7899 63.588L67.8432 63.134L68.4422 63.1867L68.5965 63.197C71.9305 63.349 76.0072 62.642 78.5109 61.479C80.4892 60.561 86.8289 57.214 85.3362 52.6954Z" fill="black"/>
<path d="M79.6355 53.574C69.7222 55.619 69.0405 52.2627 69.0405 52.2627C79.5072 36.7317 83.8829 17.0173 80.1072 12.1923C69.8059 -0.969329 51.9742 5.25534 51.6765 5.41667L51.5809 5.434C49.6222 5.02734 47.4305 4.78534 44.9669 4.745C40.4815 4.67167 37.0789 5.921 34.4969 7.879C34.4969 7.879 2.68685 -5.22566 4.16652 24.3603C4.48119 30.6543 13.1879 71.9847 23.5725 59.501C27.3682 54.936 31.0359 51.0763 31.0359 51.0763C32.8572 52.2863 35.0379 52.9037 37.3239 52.682L37.5015 52.5313C37.4462 53.098 37.4715 53.6523 37.5725 54.3087C34.8972 57.2977 35.6835 57.8223 30.3355 58.9233C24.9239 60.0387 28.1029 62.024 30.1785 62.5433C32.6949 63.1723 38.5162 64.0637 42.4495 58.5573L42.2929 59.1857C43.3409 60.0253 44.0769 64.6467 43.9535 68.8363C43.8302 73.0257 43.7479 75.902 44.5735 78.1487C45.3999 80.3953 46.2229 85.4503 53.2535 83.944C59.1279 82.685 62.1722 79.4227 62.5959 73.9807C62.8962 70.112 63.5765 70.684 63.6192 67.225L64.1649 65.5877C64.7939 60.3433 64.2649 58.6513 67.8839 59.4383L68.7639 59.5157C71.4272 59.6367 74.9139 59.087 76.9602 58.136C81.3662 56.0913 83.9795 52.677 79.6349 53.574H79.6355Z" fill="#336791"/>
<path d="M36.3589 27.175C35.4656 27.0507 34.6566 27.1657 34.2472 27.4757C34.0172 27.65 33.9459 27.852 33.9266 27.991C33.8752 28.3593 34.1332 28.7667 34.2919 28.9767C34.7406 29.5713 35.3959 29.98 36.0446 30.07C36.1386 30.0831 36.2321 30.0896 36.3252 30.0893C37.4069 30.0893 38.3906 29.247 38.4772 28.6253C38.5856 27.8467 37.4552 27.3273 36.3589 27.175ZM65.9536 27.1997C65.8682 26.5893 64.7822 26.4153 63.7516 26.5587C62.7222 26.702 61.7242 27.1667 61.8076 27.7783C61.8742 28.254 62.7332 29.066 63.7499 29.066C63.8359 29.066 63.9226 29.06 64.0099 29.048C64.6886 28.954 65.1866 28.523 65.4232 28.2747C65.7832 27.896 65.9919 27.474 65.9536 27.1997Z" fill="white"/>
<path d="M82.9341 53.3416C82.5561 52.1986 81.3395 51.831 79.3181 52.2483C73.3165 53.487 71.1671 52.629 70.4615 52.1093C75.1265 45.0026 78.9641 36.412 81.0345 28.397C82.0151 24.6003 82.5568 21.0743 82.6011 18.2003C82.6501 15.046 82.1128 12.728 81.0048 11.312C76.5375 5.60365 69.9808 2.54165 62.0441 2.45765C56.5878 2.39631 51.9778 3.79265 51.0841 4.18531C49.2021 3.71731 47.1505 3.42998 44.9168 3.39331C40.8208 3.32698 37.2801 4.30765 34.3488 6.30665C33.0755 5.83265 29.7848 4.70298 25.7605 4.05465C18.8031 2.93465 13.2745 3.78331 9.32914 6.57831C4.62148 9.91365 2.44814 15.8756 2.86914 24.2983C3.01081 27.132 4.62548 35.8493 7.17348 44.1976C10.5275 55.1856 14.1735 61.406 18.0095 62.6856C18.4585 62.8353 18.9761 62.94 19.5471 62.94C20.9465 62.94 22.6621 62.3093 24.4471 60.1633C26.6244 57.5515 28.8765 55.0031 31.2008 52.5213C32.7088 53.3306 34.3655 53.7826 36.0598 53.828C36.0634 53.8724 36.0673 53.9166 36.0715 53.9606C35.7798 54.3085 35.4942 54.6613 35.2148 55.019C34.0408 56.5093 33.7965 56.8196 30.0175 57.5976C28.9425 57.8196 26.0875 58.408 26.0455 60.4093C26.0001 62.596 29.4205 63.5143 29.8101 63.6116C31.1681 63.9516 32.4765 64.1193 33.7241 64.1193C36.7585 64.1193 39.4288 63.122 41.5628 61.1923C41.4971 68.9876 41.8221 76.669 42.7581 79.0093C43.5248 80.9253 45.3975 85.6076 51.3128 85.6073C52.1808 85.6073 53.1361 85.5063 54.1871 85.281C60.3608 83.9576 63.0418 81.229 64.0788 75.2133C64.6338 71.9983 65.5861 64.3213 66.0341 60.2033C66.9795 60.4983 68.1965 60.6333 69.5121 60.633C72.2561 60.633 75.4225 60.05 77.4081 59.1283C79.6388 58.0923 83.6641 55.5503 82.9341 53.3416ZM68.2321 25.515C68.2118 26.7306 68.0445 27.8343 67.8671 28.9863C67.6761 30.2253 67.4788 31.5063 67.4291 33.0613C67.3801 34.5746 67.5691 36.148 67.7518 37.6696C68.1211 40.743 68.5001 43.907 67.0331 47.029C66.7898 46.597 66.5728 46.1507 66.3831 45.6926C66.2008 45.2506 65.8048 44.5406 65.2565 43.558C63.1235 39.7326 58.1285 30.7746 60.6855 27.1193C61.4471 26.0313 63.3801 24.9126 68.2321 25.515ZM62.3508 4.91931C69.4621 5.07631 75.0875 7.73665 79.0701 12.826C82.1248 16.7296 78.7611 34.492 69.0235 49.8156C68.9256 49.6911 68.8271 49.567 68.7281 49.4433L68.6048 49.2893C71.1211 45.1336 70.6291 41.022 70.1911 37.3766C70.0111 35.8806 69.8411 34.4676 69.8845 33.1403C69.9291 31.7336 70.1151 30.527 70.2951 29.3603C70.5161 27.9226 70.7411 26.435 70.6791 24.6813C70.7255 24.4973 70.7441 24.28 70.7198 24.022C70.5615 22.3403 68.6415 17.3073 64.7281 12.752C62.5875 10.2603 59.4658 7.47198 55.2035 5.59131C57.0368 5.21131 59.5438 4.85698 62.3508 4.91931ZM22.5581 58.5926C20.5915 60.9573 19.2335 60.504 18.7868 60.3553C15.8768 59.3846 12.5001 53.234 9.52314 43.4806C6.94714 35.0413 5.44181 26.555 5.32248 24.1753C4.94648 16.6493 6.77081 11.4043 10.7451 8.58565C17.2131 3.99898 27.8471 6.74431 32.1201 8.13665C32.0588 8.19731 31.9948 8.25398 31.9341 8.31565C24.9221 15.397 25.0885 27.4956 25.1058 28.2353C25.1051 28.5206 25.1291 28.9246 25.1618 29.4803C25.2825 31.5153 25.5071 35.3026 24.9071 39.5916C24.3498 43.5773 25.5785 47.4783 28.2775 50.2946C28.5544 50.5832 28.8455 50.8578 29.1498 51.1173C27.9485 52.404 25.3375 55.2493 22.5581 58.5926ZM30.0511 48.595C27.8758 46.325 26.8878 43.1676 27.3401 39.9316C27.9735 35.401 27.7398 31.455 27.6141 29.335C27.5965 29.0383 27.5808 28.7783 27.5718 28.5733C28.5961 27.665 33.3431 25.1216 36.7285 25.8973C38.2731 26.251 39.2145 27.303 39.6058 29.1123C41.6311 38.48 39.8738 42.3843 38.4618 45.522C38.1708 46.1683 37.8958 46.7793 37.6611 47.4113L37.4791 47.9C37.0185 49.1353 36.5898 50.284 36.3241 51.3746C34.0115 51.368 31.7618 50.38 30.0511 48.5946M30.4061 61.228C29.7308 61.0593 29.1235 60.7663 28.7671 60.5233C29.0648 60.3833 29.5945 60.1926 30.5131 60.0033C34.9588 59.0883 35.6455 58.4423 37.1448 56.5386C37.4885 56.102 37.8781 55.6073 38.4178 55.0046L38.4185 55.004C39.2221 54.104 39.5898 54.2566 40.2565 54.5333C40.7968 54.7566 41.3231 55.434 41.5365 56.1793C41.6375 56.5313 41.7508 57.1993 41.3798 57.7193C38.2478 62.1046 33.6838 62.0483 30.4061 61.228ZM53.6725 82.8786C48.2338 84.044 46.3081 81.269 45.0391 78.0966C44.2201 76.0486 43.8175 66.8133 44.1031 56.6143C44.1068 56.4786 44.0875 56.3476 44.0501 56.2243C44.0168 55.9808 43.966 55.7399 43.8981 55.5036C43.4735 54.0196 42.4385 52.7783 41.1968 52.2636C40.7035 52.0593 39.7981 51.6843 38.7101 51.9626C38.9421 51.0066 39.3445 49.927 39.7808 48.758L39.9638 48.2663C40.1698 47.712 40.4285 47.1376 40.7018 46.5296C42.1795 43.247 44.2031 38.7506 42.0068 28.593C41.1841 24.7883 38.4368 22.9303 34.2721 23.362C31.7755 23.6203 29.4911 24.6276 28.3518 25.2053C28.1068 25.3293 27.8828 25.4493 27.6735 25.566C27.9915 21.7326 29.1928 14.5686 33.6868 10.036C36.5165 7.18265 40.2848 5.77331 44.8761 5.84931C53.9228 5.99731 59.7241 10.64 62.9981 14.509C65.8195 17.8426 67.3471 21.201 67.9568 23.0123C63.3718 22.546 60.2535 23.451 58.6728 25.711C55.2338 30.627 60.5541 40.1683 63.1111 44.754C63.5801 45.5943 63.9848 46.3206 64.1121 46.6293C64.9448 48.6473 66.0228 49.9946 66.8098 50.978C67.0511 51.2793 67.2851 51.5716 67.4632 51.827C66.0745 52.2273 63.5801 53.1523 63.8075 57.776C63.6241 60.096 62.3205 70.958 61.6581 74.7956C60.7838 79.8656 58.9181 81.7536 53.6725 82.8786ZM76.3738 56.9003C74.9538 57.5593 72.5775 58.0536 70.3201 58.16C67.8268 58.2766 66.5575 57.8806 66.2588 57.637C66.1188 54.7556 67.1911 54.4546 68.3261 54.136C68.5045 54.086 68.6785 54.037 68.8465 53.9783C68.9507 54.0634 69.0654 54.1474 69.1905 54.2303C71.1945 55.553 74.7688 55.6956 79.8151 54.654L79.8705 54.643C79.1898 55.2793 78.0251 56.1333 76.3738 56.9003Z" fill="white"/>
</g>
<defs>
<clipPath id="clip0_140_1578">
<rect width="85.3333" height="88" fill="white" transform="translate(0.333496)"/>
</clipPath>
</defs>
</svg>
