<svg width="90" height="88" viewBox="0 0 90 88" fill="none" xmlns="http://www.w3.org/2000/svg">
<g clip-path="url(#clip0_140_704)">
<path d="M44.5153 0.0249023C22.1419 0.0249023 23.5388 9.72733 23.5388 9.72733L23.5637 19.7794H44.9142V22.7972H15.0836C15.0836 22.7972 0.766846 21.1735 0.766846 43.7481C0.766846 66.3234 13.2628 65.5228 13.2628 65.5228H20.7204V55.047C20.7204 55.047 20.3184 42.551 33.0169 42.551H54.1929C54.1929 42.551 66.0901 42.7432 66.0901 31.0527V11.723C66.0901 11.723 67.897 0.0249023 44.5153 0.0249023ZM32.7426 6.78468C33.2471 6.78423 33.7468 6.88327 34.213 7.07613C34.6792 7.269 35.1028 7.5519 35.4596 7.90866C35.8163 8.26541 36.0992 8.68901 36.2921 9.15522C36.485 9.62143 36.584 10.1211 36.5835 10.6256C36.584 11.1302 36.485 11.6298 36.2921 12.096C36.0992 12.5622 35.8163 12.9858 35.4596 13.3426C35.1028 13.6993 34.6792 13.9823 34.213 14.1751C33.7468 14.368 33.2471 14.467 32.7426 14.4666C32.2381 14.467 31.7384 14.368 31.2722 14.1751C30.806 13.9823 30.3824 13.6993 30.0256 13.3426C29.6689 12.9858 29.386 12.5622 29.1931 12.096C29.0002 11.6298 28.9012 11.1302 28.9017 10.6256C28.9012 10.1211 29.0002 9.62143 29.1931 9.15522C29.386 8.68901 29.6689 8.26541 30.0256 7.90866C30.3824 7.5519 30.806 7.269 31.2722 7.07613C31.7384 6.88327 32.2381 6.78423 32.7426 6.78468Z" fill="url(#paint0_linear_140_704)"/>
<path d="M45.1505 87.6984C67.5239 87.6984 66.127 77.996 66.127 77.996L66.1021 67.9443H44.7512V64.9264H74.5819C74.5819 64.9264 88.8986 66.5501 88.8986 43.9748C88.8986 21.3999 76.4026 22.2005 76.4026 22.2005H68.945V32.676C68.945 32.676 69.3471 45.172 56.6485 45.172H35.4726C35.4726 45.172 23.5753 44.9798 23.5753 56.6707V76.0006C23.5753 76.0006 21.7687 87.6984 45.1502 87.6984M56.9228 80.9393C56.4183 80.9398 55.9187 80.8407 55.4524 80.6479C54.9862 80.455 54.5626 80.1721 54.2059 79.8154C53.8491 79.4586 53.5662 79.035 53.3734 78.5688C53.1805 78.1026 53.0815 77.6029 53.0819 77.0984C53.0814 76.5938 53.1804 76.0941 53.3733 75.6279C53.5661 75.1616 53.849 74.738 54.2058 74.3812C54.5625 74.0244 54.9861 73.7415 55.4524 73.5486C55.9186 73.3557 56.4183 73.2566 56.9228 73.2571C57.4274 73.2566 57.927 73.3557 58.3932 73.5485C58.8595 73.7414 59.2831 74.0243 59.6398 74.3811C59.9966 74.7378 60.2795 75.1614 60.4723 75.6276C60.6652 76.0938 60.7642 76.5935 60.7638 77.098C60.7642 77.6026 60.6652 78.1022 60.4723 78.5684C60.2795 79.0346 59.9966 79.4582 59.6398 79.815C59.2831 80.1718 58.8595 80.4547 58.3932 80.6475C57.927 80.8404 57.4274 80.9398 56.9228 80.9393Z" fill="url(#paint1_linear_140_704)"/>
</g>
<defs>
<linearGradient id="paint0_linear_140_704" x1="847.711" y1="788.596" x2="5215.26" y2="5112.57" gradientUnits="userSpaceOnUse">
<stop stop-color="#387EB8"/>
<stop offset="1" stop-color="#366994"/>
</linearGradient>
<linearGradient id="paint1_linear_140_704" x1="1273.67" y1="1370.15" x2="5963.91" y2="5803.99" gradientUnits="userSpaceOnUse">
<stop stop-color="#FFE052"/>
<stop offset="1" stop-color="#FFC331"/>
</linearGradient>
<clipPath id="clip0_140_704">
<rect width="88.3451" height="88" fill="white" transform="translate(0.716797)"/>
</clipPath>
</defs>
</svg>
