<svg width="100" height="88" viewBox="0 0 100 88" fill="none" xmlns="http://www.w3.org/2000/svg">
<g clip-path="url(#clip0_140_715)">
<path d="M81.5232 28.4934C80.4717 28.1327 79.4112 27.7985 78.3429 27.4911C78.5224 26.7577 78.6875 26.0333 78.8342 25.3215C81.2419 13.6341 79.6679 4.21853 74.2918 1.11846C69.1372 -1.85347 60.7074 1.24544 52.1938 8.65481C51.3547 9.38631 50.5342 10.1389 49.7332 10.9119C49.197 10.3979 48.6513 9.89391 48.0964 9.40011C39.1736 1.47779 30.23 -1.86119 24.8597 1.24776C19.7098 4.22895 18.1848 13.0803 20.3524 24.1567C20.5681 25.2537 20.8116 26.3451 21.0827 27.4297C19.8167 27.7894 18.5951 28.1723 17.426 28.5799C6.96485 32.2272 0.28418 37.943 0.28418 43.8718C0.28418 49.9951 7.45618 56.137 18.352 59.8612C19.2353 60.1618 20.126 60.4404 21.0232 60.6968C20.7319 61.865 20.4732 63.0411 20.2474 64.2237C18.181 75.1079 19.7947 83.7501 24.9307 86.7124C30.2354 89.7715 39.1389 86.6274 47.808 79.049C48.511 78.4329 49.1985 77.7993 49.8699 77.1489C50.7373 77.9859 51.628 78.7986 52.5407 79.5859C60.9386 86.8119 69.2322 89.7298 74.3632 86.7594C79.6629 83.6914 81.3854 74.4074 79.1492 63.1121C78.973 62.2272 78.7754 61.3467 78.5567 60.4714C79.182 60.2861 79.7957 60.0954 80.3939 59.8971C91.7212 56.1443 99.0912 50.0769 99.0912 43.8718C99.0912 37.9214 92.1948 32.167 81.5232 28.4934ZM79.0666 55.8907C78.5257 56.0693 77.9725 56.2424 77.4069 56.4099C76.1564 52.451 74.4689 48.2417 72.4036 43.8922C74.3744 39.6466 75.997 35.4909 77.2124 31.558C78.2232 31.8505 79.204 32.1589 80.1496 32.4843C89.2931 35.6322 94.8703 40.2858 94.8703 43.8718C94.8703 47.6913 88.8469 52.6498 79.0666 55.8907ZM75.0085 63.9319C75.9974 68.9263 76.1382 73.4421 75.4833 76.9725C74.8951 80.1448 73.7117 82.2595 72.2481 83.1067C69.1345 84.9091 62.4755 82.5663 55.2938 76.3863C54.4449 75.6542 53.6164 74.8987 52.8094 74.1206C55.5937 71.0758 58.3761 67.5361 61.0918 63.6046C65.8685 63.1808 70.3812 62.4877 74.4736 61.5417C74.6756 62.3553 74.8539 63.152 75.0085 63.9319ZM33.9697 82.7952C30.9275 83.8693 28.5044 83.9002 27.0397 83.0557C23.923 81.2583 22.6273 74.319 24.3946 65.0111C24.6047 63.9112 24.8453 62.8173 25.116 61.7308C29.1632 62.6262 33.6431 63.27 38.431 63.6583C41.1652 67.5052 44.0279 71.041 46.913 74.1372C46.2998 74.7305 45.6722 75.3086 45.0306 75.871C41.1968 79.2219 37.3553 81.5995 33.9697 82.7952ZM19.7175 55.8672C14.8995 54.2203 10.9206 52.0801 8.19337 49.7446C5.7425 47.6461 4.50548 45.5623 4.50548 43.8718C4.50548 40.2738 9.86923 35.6847 18.8155 32.5657C19.9012 32.1875 21.0375 31.8305 22.2166 31.4954C23.4533 35.5172 25.0751 39.7223 27.0323 43.9745C25.0496 48.2895 23.4046 52.5618 22.156 56.631C21.3371 56.3964 20.524 56.1417 19.7175 55.8672ZM24.495 23.3458C22.6381 13.8561 23.8713 6.69758 26.9748 4.90092C30.2802 2.9873 37.5896 5.71569 45.2939 12.5565C45.7963 13.0036 46.2905 13.4598 46.7764 13.9248C43.9055 17.0075 41.0691 20.5171 38.3592 24.3412C33.7122 24.7719 29.264 25.4636 25.1743 26.3903C24.9223 25.3815 24.6958 24.3661 24.495 23.3458ZM67.1159 33.8707C66.1499 32.2021 65.1481 30.5546 64.1112 28.9292C67.2638 29.3279 70.2843 29.857 73.1208 30.5039C72.2693 33.2334 71.2079 36.0869 69.9586 39.0125C69.0454 37.2798 68.0976 35.5655 67.1159 33.8707ZM49.7352 16.9419C51.682 19.0512 53.6319 21.4059 55.5497 23.961C51.6592 23.7773 47.7622 23.7765 43.8716 23.9587C45.7914 21.4272 47.7579 19.0755 49.7352 16.9419ZM32.2428 33.8992C31.2734 35.5804 30.3434 37.284 29.4535 39.0086C28.2246 36.0934 27.1728 33.2269 26.314 30.4587C29.1331 29.8281 32.1394 29.3124 35.2719 28.9211C34.2234 30.5564 33.2135 32.2165 32.2428 33.8992ZM35.3618 59.1224C32.1255 58.7612 29.0741 58.2721 26.2558 57.6585C27.128 54.8409 28.2029 51.9134 29.4585 48.9356C30.3519 50.6615 31.2858 52.3662 32.2594 54.0481C33.2606 55.7773 34.2973 57.4709 35.3618 59.1224ZM49.8517 71.0989C47.8509 68.9406 45.8554 66.5526 43.9067 63.9844C45.7987 64.0585 47.7274 64.0964 49.6877 64.0964C51.7017 64.0964 53.6925 64.0512 55.652 63.964C53.728 66.5785 51.7854 68.9699 49.8517 71.0989ZM69.9983 48.7836C71.3191 51.7941 72.4322 54.7062 73.3161 57.4755C70.4514 58.1293 67.3583 58.6558 64.0992 59.0468C65.1436 57.3912 66.1549 55.715 67.1325 54.0192C68.1266 52.2955 69.0821 50.5499 69.9983 48.7836ZM63.4763 51.9103C61.9795 54.5102 60.3986 57.0609 58.7362 59.5582C55.7248 59.7716 52.7067 59.8775 49.6877 59.8758C46.6127 59.8758 43.6219 59.7801 40.7418 59.5933C39.0359 57.1019 37.4248 54.5468 35.9122 51.9334C34.4065 49.3341 33.0006 46.6784 31.6967 43.9721C32.9973 41.2653 34.3993 38.6083 35.8999 36.007L35.8995 36.0074C37.3992 33.4052 38.9974 30.861 40.6905 28.3803C43.6288 28.158 46.642 28.0422 49.6873 28.0422C52.7465 28.0422 55.7639 28.1592 58.7015 28.383C60.3775 30.86 61.9654 33.3955 63.4624 35.9846C64.9677 38.5804 66.3883 41.2243 67.7219 43.9123C66.4019 46.6278 64.9858 49.2955 63.4763 51.9103ZM72.1837 4.7747C75.4921 6.68291 76.7789 14.3779 74.7001 24.4689C74.5669 25.1133 74.4189 25.7681 74.2563 26.4335C70.1566 25.4871 65.7052 24.7835 61.0447 24.3462C58.3298 20.48 55.5165 16.965 52.6924 13.9221C53.4326 13.2086 54.1903 12.5137 54.965 11.8379C62.2597 5.4899 69.0774 2.98344 72.1837 4.7747ZM49.6877 35.0486C54.5605 35.0486 58.5108 38.999 58.5108 43.8718C58.5108 48.7446 54.5605 52.695 49.6877 52.695C44.8149 52.695 40.8645 48.7446 40.8645 43.8718C40.8645 38.999 44.8149 35.0486 49.6877 35.0486Z" fill="#00D8FF"/>
</g>
<defs>
<clipPath id="clip0_140_715">
<rect width="98.807" height="88" fill="white" transform="translate(0.28418)"/>
</clipPath>
</defs>
</svg>
