<svg width="118" height="88" viewBox="0 0 118 88" fill="none" xmlns="http://www.w3.org/2000/svg">
<g clip-path="url(#clip0_140_1576)">
<path d="M100.962 50.6523C96.8801 50.6733 93.3321 51.6565 90.3616 53.1098C89.2713 50.9511 88.1814 49.0279 87.9893 47.6172C87.7753 45.9718 87.5191 44.9671 87.7753 43.0008C88.0319 41.0346 89.186 38.2346 89.1645 38.021C89.1429 37.8075 88.9078 36.8028 86.557 36.7817C84.2062 36.7606 82.1758 37.2304 81.9407 37.8501C81.7056 38.4698 81.2569 39.8805 80.9576 41.3334C80.5515 43.4711 76.256 51.1005 73.7984 55.0972C73.0073 53.5375 72.3235 52.1693 72.1736 51.0794C71.96 49.434 71.7033 48.4293 71.96 46.4631C72.2167 44.4968 73.3708 41.6973 73.3492 41.4833C73.3277 41.2697 73.0926 40.265 70.7418 40.244C68.3905 40.2224 66.3601 40.6927 66.1254 41.3123C65.8903 41.9325 65.6336 43.3854 65.1423 44.7961C64.651 46.2069 58.9443 58.9449 57.4483 62.2357C56.8437 63.5677 56.2095 64.886 55.5462 66.1898C55.5462 66.1898 55.5246 66.2539 55.4605 66.3607C55.2521 66.7695 55.0385 67.1756 54.8197 67.579V67.6C54.4989 68.1775 54.157 68.7115 53.986 68.7115C53.8577 68.7115 53.6226 67.1729 54.0286 65.0783C54.8834 60.6545 56.9138 53.7726 56.8928 53.5375C56.8928 53.4091 57.2773 52.2124 55.5677 51.5923C53.9003 50.9726 53.3022 51.9984 53.1523 51.9984C53.0024 51.9984 52.8956 52.3618 52.8956 52.3618C52.8956 52.3618 54.7556 44.6252 49.3481 44.6252C45.9716 44.6252 41.3122 48.3225 39.004 51.6565C36.3801 53.0844 33.7584 54.5163 31.139 55.9524C29.8786 56.6578 28.5746 57.3632 27.3564 58.0255C27.2707 57.9402 27.1854 57.833 27.0997 57.7477C20.5598 50.759 8.46343 45.8219 8.9763 36.4398C9.1688 33.0202 10.344 24.0437 32.2078 13.1441C50.2029 4.27442 64.5226 6.732 67.0018 12.182C70.5493 19.9618 59.3293 34.4094 40.7351 36.5035C33.6397 37.2946 29.9208 34.5588 28.9807 33.533C27.9976 32.4642 27.8477 32.4 27.4843 32.6141C26.8861 32.9349 27.2707 33.8965 27.4843 34.452C28.0402 35.9049 30.3268 38.4698 34.1952 39.7311C37.6148 40.8421 45.9285 41.4622 55.9949 37.5723C67.258 33.2122 76.0635 21.0943 73.4776 10.9427C70.8912 0.64121 53.7935 -2.75687 37.6148 2.992C27.9976 6.41209 17.5678 11.7975 10.0662 18.8077C1.15393 27.1425 -0.256824 34.3878 0.320218 37.4229C2.39372 48.1942 17.2474 55.2044 23.1888 60.3978C22.8895 60.5687 22.6113 60.7186 22.3766 60.847C19.4057 62.3214 8.07843 68.2412 5.25738 74.5035C2.0518 81.5989 5.77072 86.686 8.2283 87.3693C15.8582 89.4855 23.7016 85.6813 27.9119 79.3975C32.1221 73.1143 31.6093 64.95 29.6646 61.21C29.643 61.1673 29.6219 61.1242 29.5788 61.0816C30.3484 60.6329 31.139 60.1627 31.9086 59.714C33.3229 58.8779 34.7552 58.0725 36.2045 57.2985C35.4776 59.2863 34.9432 61.6587 34.687 65.0783C34.3661 69.0965 36.0116 74.311 38.1703 76.3625C39.1323 77.2608 40.2649 77.2819 40.9918 77.2819C43.5136 77.2819 44.6466 75.1873 45.9074 72.7082C47.4461 69.6735 48.8353 66.1471 48.8353 66.1471C48.8353 66.1471 47.1041 75.6791 51.8062 75.6791C53.5158 75.6791 55.2469 73.4562 56.0164 72.3236V72.3447C56.0164 72.3447 56.0591 72.2805 56.1448 72.1311C56.3157 71.8534 56.4225 71.682 56.4225 71.682V71.6398C57.1063 70.4426 58.6454 67.7284 60.9321 63.2188C63.8814 57.4058 66.724 50.1394 66.724 50.1394C66.724 50.1394 66.9807 51.9131 67.8566 54.8625C68.3699 56.5936 69.4378 58.4957 70.2931 60.3336C69.6092 61.2957 69.1816 61.8296 69.1816 61.8296L69.2031 61.8512C68.6472 62.5776 68.0491 63.3683 67.3863 64.1383C65.0566 66.9162 62.2786 70.1012 61.8936 71.0197C61.4445 72.1096 61.5517 72.9007 62.407 73.5419C63.0266 74.0121 64.1376 74.0758 65.2706 74.0121C67.3652 73.8623 68.8397 73.3494 69.5661 73.029C70.6991 72.6229 72.0242 72.0028 73.2635 71.0838C75.5506 69.3953 76.9394 66.9804 76.8115 63.7963C76.7473 62.0437 76.1703 60.291 75.4649 58.6451C75.6789 58.3463 75.871 58.047 76.085 57.7477C79.6967 52.4686 82.4966 46.6767 82.4966 46.6767C82.4966 46.6767 82.7533 48.4504 83.6292 51.4003C84.0568 52.8963 84.9331 54.5206 85.7022 56.1018C82.3041 58.8592 80.2096 62.0647 79.4616 64.1593C78.1154 68.0492 79.1623 69.8014 81.1501 70.2075C82.0475 70.4 83.3299 69.9724 84.2704 69.5663C85.4671 69.1818 86.8779 68.5195 88.2244 67.5359C90.5115 65.8478 92.7124 63.4966 92.5841 60.3125C92.5199 58.8592 92.1354 57.4269 91.601 56.0377C94.4862 54.8414 98.2051 54.1787 102.949 54.7342C113.123 55.9309 115.132 62.2783 114.747 64.9504C114.362 67.6216 112.225 69.075 111.52 69.5237C110.814 69.9728 110.58 70.1222 110.644 70.4426C110.729 70.9129 111.071 70.8918 111.67 70.8061C112.503 70.6567 117.013 68.6473 117.205 63.7317C117.526 57.4484 111.541 50.5881 100.962 50.6523ZM22.4834 77.1109C19.1064 80.7868 14.4048 82.176 12.3744 81.0008C10.1946 79.7395 11.0493 74.311 15.1954 70.4215C17.7172 68.0492 20.9658 65.8474 23.1246 64.5013C23.6159 64.202 24.3428 63.7748 25.2192 63.2404C25.3686 63.1547 25.4543 63.112 25.4543 63.112L25.9672 62.7912C27.4843 68.348 26.0313 73.2426 22.4834 77.1109ZM47.0615 60.3978C45.8859 63.2619 43.4283 70.5925 41.9323 70.1864C40.6499 69.8445 39.8588 64.2877 41.6756 58.795C42.5946 56.0377 44.5393 52.7464 45.6723 51.4644C47.5102 49.4125 49.5406 48.7282 50.032 49.5623C50.6521 50.6523 47.788 58.6025 47.0615 60.3978ZM67.3437 70.1007C66.8519 70.3574 66.3821 70.5283 66.1681 70.4C66.0186 70.3143 66.3821 69.9724 66.3821 69.9724C66.3821 69.9724 68.9254 67.237 69.9296 65.9973C70.5071 65.2708 71.1905 64.416 71.9174 63.454V63.7317C71.9174 67.0019 68.754 69.2033 67.3432 70.1007M82.9875 66.5317C82.6241 66.275 82.6882 65.4202 83.9065 62.7486C84.3767 61.7013 85.4877 59.9491 87.3903 58.2606C87.6039 58.9444 87.7537 59.6072 87.7322 60.2268C87.7106 64.3518 84.7617 65.8905 82.9875 66.5317Z" fill="#CD6799"/>
</g>
<defs>
<clipPath id="clip0_140_1576">
<rect width="117.333" height="88" fill="white"/>
</clipPath>
</defs>
</svg>
