<svg width="88" height="88" viewBox="0 0 88 88" fill="none" xmlns="http://www.w3.org/2000/svg">
<g clip-path="url(#clip0_140_1557)">
<path d="M44.0027 17.6014C32.2691 17.6014 24.9383 23.4658 22.0027 35.1993C26.4013 29.3343 31.5362 27.1349 37.4013 28.6014C40.7501 29.436 43.1433 31.8643 45.7936 34.5551C50.107 38.9324 55.0996 44 66.0027 44C77.7356 44 85.0671 38.1349 88.0027 26.3986C83.6027 32.2667 78.4696 34.4671 72.6034 33C69.2552 32.1647 66.8648 29.7371 64.2111 27.0463C59.9004 22.6689 54.9092 17.6014 44.0027 17.6014ZM22.0027 44C10.2698 44 2.93831 49.8651 0.00268555 61.6014C4.40223 55.7333 9.5351 53.5329 15.4013 55C18.7501 55.8353 21.1433 58.2629 23.7936 60.9538C28.107 65.3311 33.0996 70.3986 44.0027 70.3986C55.7356 70.3986 63.0671 64.5343 66.0027 52.8007C61.6027 58.666 56.4696 60.8653 50.6034 59.3986C47.2553 58.564 44.8648 56.1358 42.2111 53.4449C37.9004 49.0676 32.9092 44 22.0027 44Z" fill="#38BDF8"/>
</g>
<defs>
<clipPath id="clip0_140_1557">
<rect width="88" height="88" fill="white"/>
</clipPath>
</defs>
</svg>
