<svg width="88" height="88" viewBox="0 0 88 88" fill="none" xmlns="http://www.w3.org/2000/svg">
<path d="M15.5857 32.3125H84.1088V82.9606H15.5857V32.3125Z" fill="white"/>
<path d="M1.03125 43.9381V86.9069H86.9688V0.96936H1.03125V43.9381ZM70.2831 40.5006C72.3414 40.9783 74.2122 42.0548 75.6594 43.5944C76.456 44.4239 77.1486 45.3474 77.7219 46.3444C77.7219 46.4544 74.0094 48.9637 71.7475 50.3662C71.665 50.4212 71.335 50.0637 70.9706 49.5206C70.5577 48.8081 69.971 48.2119 69.2653 47.7875C68.5596 47.3631 67.7579 47.1244 66.935 47.0937C64.3294 46.915 62.6519 48.2831 62.6656 50.5312C62.6447 51.0909 62.7729 51.6461 63.0369 52.14C63.6075 53.3294 64.6731 54.0375 68.0144 55.4812C74.1675 58.1281 76.8006 59.8744 78.4369 62.3562C80.2656 65.1062 80.6712 69.5475 79.4338 72.8337C78.0588 76.4087 74.69 78.8356 69.9256 79.64C67.7496 79.8894 65.5509 79.8663 63.3806 79.5712C60.0543 79.0229 56.9902 77.4259 54.6356 75.0131C53.845 74.14 52.305 71.8644 52.4013 71.6994C52.6517 71.5123 52.916 71.3446 53.1919 71.1975L56.375 69.4375L58.8431 68.0075L59.3587 68.7706C60.2292 70.0152 61.3366 71.0758 62.6175 71.8919C65.3675 73.3356 69.1212 73.1362 70.9775 71.4656C71.6007 70.8534 71.9895 70.0421 72.0762 69.1728C72.1629 68.3035 71.942 67.4313 71.4519 66.7081C70.7644 65.7525 69.3894 64.9481 65.5462 63.2706C61.1119 61.3594 59.2006 60.1769 57.4544 58.2931C56.3646 57.0498 55.5598 55.5833 55.0962 53.9962C54.7508 52.1829 54.6997 50.3258 54.945 48.4962C55.8594 44.2131 59.07 41.2225 63.7587 40.3356C65.9302 40.0674 68.1296 40.1276 70.2831 40.5144V40.5006ZM50.1119 44.1031V47.6231H38.9538V79.4062H31.0406V47.6162H19.855V44.1787C19.8199 42.9933 19.8475 41.8069 19.9375 40.6244C19.9925 40.5625 26.8125 40.5625 35.0625 40.5625H50.0706L50.1119 44.1031Z" fill="#007ACC"/>
</svg>
