<svg width="101" height="100" viewBox="0 0 101 100" fill="none" xmlns="http://www.w3.org/2000/svg">
<path d="M8.39551 50C8.39551 61.0507 12.7854 71.6488 20.5994 79.4628C24.4685 83.3319 29.0618 86.4011 34.117 88.495C39.1723 90.589 44.5904 91.6667 50.0622 91.6667C61.1129 91.6667 71.7109 87.2768 79.525 79.4628C87.339 71.6488 91.7289 61.0507 91.7289 50C91.7289 44.5283 90.6511 39.1101 88.5572 34.0549C86.4632 28.9997 83.3941 24.4064 79.525 20.5373C75.6559 16.6682 71.0626 13.599 66.0073 11.5051C60.9521 9.41111 55.5339 8.33337 50.0622 8.33337C44.5904 8.33337 39.1723 9.41111 34.117 11.5051C29.0618 13.599 24.4685 16.6682 20.5994 20.5373C12.7854 28.3513 8.39551 38.9494 8.39551 50ZM21.8955 78.1667C18.1855 74.4761 15.2442 70.0864 13.2416 65.2516C11.2391 60.4169 10.2151 55.2331 10.2288 50C10.2288 39.375 14.3538 29.375 21.8955 21.8334C25.5862 18.1234 29.9758 15.1821 34.8106 13.1795C39.6453 11.177 44.8291 10.1529 50.0622 10.1667C60.6872 10.1667 70.6872 14.2917 78.2288 21.8334C81.9388 25.524 84.8802 29.9137 86.8827 34.7484C88.8853 39.5832 89.9093 44.767 89.8955 50C89.8955 60.625 85.7705 70.625 78.2288 78.1667C74.5382 81.8767 70.1485 84.818 65.3138 86.8206C60.479 88.8231 55.2952 89.8471 50.0622 89.8334C39.4372 89.8334 29.4372 85.7084 21.8955 78.1667ZM26.5205 39.5834C18.1455 49.125 19.7705 57 19.7705 57C19.7705 57 22.0622 51.5834 27.6038 45.8334C30.2705 43.2084 32.2288 42.2917 33.5622 42.2917C35.0622 42.2917 35.7705 43.375 35.7705 44.375V63.7084C35.7705 65.625 34.5205 66.0417 33.3955 66C32.7572 65.9854 32.1248 65.873 31.5205 65.6667C37.2288 73.875 50.8538 75 50.8538 75L56.8538 68.75H57.0205L62.5622 73.4584C72.5205 67.5417 77.3538 56.5834 77.3538 56.5834C72.9788 61.25 70.0205 62.375 68.3538 62.3334C66.8538 62.3334 66.2288 61.4584 66.2288 61.4584C66.1872 61.0417 65.9788 37.0834 66.2705 37.0834C68.0205 33.875 73.5205 27.3334 73.5205 27.3334C63.2288 29.375 57.6038 36.0834 57.6038 36.0834C55.9372 34.7917 52.5205 35 52.5205 35C54.1038 35.875 55.6872 38.375 55.6872 40.5V61.0417C55.6872 61.0417 52.1455 64.0834 49.5622 64.0834C47.9788 64.0834 47.0205 63.2084 46.4788 62.5C46.1038 62 45.8955 61.625 45.8955 61.625V36.2084C45.6038 36.4584 45.1455 36.6667 44.6872 36.6667C44.1038 36.625 43.5205 36.375 43.1455 35.5417C42.8122 34.9167 42.6455 33.9584 42.6455 32.625C42.6455 27.9167 47.9788 24.8334 47.9788 24.8334C41.1872 26.625 34.8955 30.0834 26.5205 39.5834Z" fill="white"/>
</svg>
